<svg xmlns="http://www.w3.org/2000/svg" xmlns:xlink="http://www.w3.org/1999/xlink" width="1120" zoomAndPan="magnify" viewBox="0 0 840 944.999993" height="1260" preserveAspectRatio="xMidYMid meet" version="1.0"><defs><clipPath id="b499005737"><path d="M 391 207.1875 L 461 207.1875 L 461 278 L 391 278 Z M 391 207.1875 " clip-rule="nonzero"/></clipPath><clipPath id="8b1549971b"><path d="M 717 221 L 786.835938 221 L 786.835938 292 L 717 292 Z M 717 221 " clip-rule="nonzero"/></clipPath><clipPath id="478e610c4a"><path d="M 177.714844 561.808594 L 178.070312 561.808594 L 178.070312 562.085938 L 177.714844 562.085938 Z M 177.714844 561.808594 " clip-rule="nonzero"/></clipPath><clipPath id="cf456d55eb"><path d="M 178.050781 561.976562 C 177.375 562.273438 177.976562 561.824219 177.976562 561.824219 " clip-rule="nonzero"/></clipPath></defs><path fill="#1a3a49" d="M 66.488281 787 L 785.109375 787 L 785.109375 793.683594 L 66.488281 793.683594 Z M 66.488281 787 " fill-opacity="1" fill-rule="nonzero"/><path fill="#dcdffe" d="M 779.699219 428.359375 C 779.699219 466.273438 748.855469 497.09375 710.84375 497.09375 L 414.402344 497.09375 C 384.816406 497.09375 360.804688 473.097656 360.804688 443.539062 C 360.804688 413.910156 384.816406 389.917969 414.402344 389.917969 C 417.984375 389.917969 421.433594 390.246094 424.75 390.910156 C 423.6875 386.007812 423.15625 380.835938 423.15625 375.601562 C 423.15625 335.566406 455.59375 303.089844 495.726562 303.089844 C 509.523438 303.089844 522.390625 306.933594 533.335938 313.5625 C 546.738281 284.863281 575.921875 264.976562 609.753906 264.976562 C 656.320312 264.976562 694.0625 302.691406 694.0625 349.15625 C 694.0625 353.464844 693.730469 357.703125 693.066406 361.878906 C 698.773438 360.355469 704.675781 359.558594 710.84375 359.558594 C 748.855469 359.558594 779.699219 390.378906 779.699219 428.359375 Z M 779.699219 428.359375 " fill-opacity="1" fill-rule="nonzero"/><path fill="#06112d" d="M 475.300781 562.820312 L 665.203125 562.820312 L 665.203125 573.808594 L 475.300781 573.808594 Z M 475.300781 562.820312 " fill-opacity="1" fill-rule="nonzero"/><path fill="#06112d" d="M 475.300781 495.707031 L 665.203125 495.707031 L 665.203125 506.695312 L 475.300781 506.695312 Z M 475.300781 495.707031 " fill-opacity="1" fill-rule="nonzero"/><path fill="#06112d" d="M 475.300781 428.597656 L 665.203125 428.597656 L 665.203125 439.585938 L 475.300781 439.585938 Z M 475.300781 428.597656 " fill-opacity="1" fill-rule="nonzero"/><path fill="#1c5ab5" d="M 688.648438 512.503906 L 688.648438 557.015625 C 688.648438 560.222656 686.046875 562.824219 682.832031 562.824219 L 457.664062 562.824219 C 454.464844 562.824219 451.863281 560.222656 451.863281 557.015625 L 451.863281 512.503906 C 451.863281 509.292969 454.464844 506.691406 457.664062 506.691406 L 682.832031 506.691406 C 686.046875 506.691406 688.648438 509.292969 688.648438 512.503906 Z M 688.648438 512.503906 " fill-opacity="1" fill-rule="nonzero"/><path fill="#1c5ab5" d="M 688.648438 378.273438 L 688.648438 422.800781 C 688.648438 425.996094 686.046875 428.59375 682.832031 428.59375 L 457.664062 428.59375 C 454.464844 428.59375 451.863281 425.996094 451.863281 422.800781 L 451.863281 378.273438 C 451.863281 375.078125 454.464844 372.476562 457.664062 372.476562 L 682.832031 372.476562 C 686.046875 372.476562 688.648438 375.078125 688.648438 378.273438 Z M 688.648438 378.273438 " fill-opacity="1" fill-rule="nonzero"/><path fill="#1c5ab5" d="M 688.648438 445.386719 L 688.648438 489.914062 C 688.648438 493.109375 686.046875 495.710938 682.832031 495.710938 L 457.664062 495.710938 C 454.464844 495.710938 451.863281 493.109375 451.863281 489.914062 L 451.863281 445.386719 C 451.863281 442.175781 454.464844 439.589844 457.664062 439.589844 L 682.832031 439.589844 C 686.046875 439.589844 688.648438 442.175781 688.648438 445.386719 Z M 688.648438 445.386719 " fill-opacity="1" fill-rule="nonzero"/><path fill="#06112d" d="M 640.796875 428.597656 L 542.726562 428.597656 C 542.726562 422.125 547.980469 416.875 554.460938 416.875 L 629.066406 416.875 C 632.308594 416.875 635.234375 418.179688 637.363281 420.308594 C 639.488281 422.433594 640.796875 425.355469 640.796875 428.597656 Z M 640.796875 428.597656 " fill-opacity="1" fill-rule="nonzero"/><path fill="#06112d" d="M 640.796875 562.820312 L 542.726562 562.820312 C 542.726562 556.347656 547.980469 551.097656 554.460938 551.097656 L 629.066406 551.097656 C 632.308594 551.097656 635.234375 552.402344 637.363281 554.527344 C 639.488281 556.65625 640.796875 559.578125 640.796875 562.820312 Z M 640.796875 562.820312 " fill-opacity="1" fill-rule="nonzero"/><path fill="#06112d" d="M 640.796875 495.707031 L 542.726562 495.707031 C 542.726562 489.234375 547.980469 483.984375 554.460938 483.984375 L 629.066406 483.984375 C 632.308594 483.984375 635.234375 485.292969 637.363281 487.417969 C 639.488281 489.542969 640.796875 492.464844 640.796875 495.707031 Z M 640.796875 495.707031 " fill-opacity="1" fill-rule="nonzero"/><path fill="#ffffff" d="M 480.765625 534.757812 C 480.765625 535.246094 480.714844 535.730469 480.621094 536.207031 C 480.527344 536.683594 480.386719 537.148438 480.199219 537.601562 C 480.011719 538.050781 479.78125 538.476562 479.511719 538.882812 C 479.242188 539.289062 478.933594 539.664062 478.585938 540.007812 C 478.242188 540.351562 477.867188 540.660156 477.460938 540.933594 C 477.054688 541.203125 476.628906 541.429688 476.175781 541.617188 C 475.726562 541.804688 475.261719 541.945312 474.78125 542.039062 C 474.304688 542.136719 473.820312 542.183594 473.332031 542.183594 C 472.847656 542.183594 472.363281 542.136719 471.882812 542.039062 C 471.40625 541.945312 470.941406 541.804688 470.488281 541.617188 C 470.039062 541.429688 469.609375 541.203125 469.207031 540.933594 C 468.800781 540.660156 468.425781 540.351562 468.078125 540.007812 C 467.734375 539.664062 467.425781 539.289062 467.15625 538.882812 C 466.882812 538.476562 466.65625 538.050781 466.46875 537.601562 C 466.28125 537.148438 466.140625 536.683594 466.046875 536.207031 C 465.949219 535.730469 465.902344 535.246094 465.902344 534.757812 C 465.902344 534.269531 465.949219 533.789062 466.046875 533.308594 C 466.140625 532.832031 466.28125 532.367188 466.46875 531.917969 C 466.65625 531.46875 466.882812 531.039062 467.15625 530.632812 C 467.425781 530.226562 467.734375 529.851562 468.078125 529.507812 C 468.425781 529.164062 468.800781 528.855469 469.207031 528.585938 C 469.609375 528.3125 470.039062 528.085938 470.488281 527.898438 C 470.941406 527.710938 471.40625 527.570312 471.882812 527.476562 C 472.363281 527.382812 472.847656 527.335938 473.332031 527.335938 C 473.820312 527.335938 474.304688 527.382812 474.78125 527.476562 C 475.261719 527.570312 475.726562 527.710938 476.175781 527.898438 C 476.628906 528.085938 477.054688 528.3125 477.460938 528.585938 C 477.867188 528.855469 478.242188 529.164062 478.585938 529.507812 C 478.933594 529.851562 479.242188 530.226562 479.511719 530.632812 C 479.78125 531.039062 480.011719 531.46875 480.199219 531.917969 C 480.386719 532.367188 480.527344 532.832031 480.621094 533.308594 C 480.714844 533.789062 480.765625 534.269531 480.765625 534.757812 Z M 480.765625 534.757812 " fill-opacity="1" fill-rule="nonzero"/><path fill="#82cafa" d="M 500.824219 534.757812 C 500.824219 535.246094 500.777344 535.730469 500.679688 536.207031 C 500.585938 536.683594 500.445312 537.148438 500.257812 537.601562 C 500.070312 538.050781 499.84375 538.476562 499.570312 538.882812 C 499.300781 539.289062 498.992188 539.664062 498.648438 540.007812 C 498.300781 540.351562 497.925781 540.660156 497.519531 540.933594 C 497.113281 541.203125 496.6875 541.429688 496.234375 541.617188 C 495.785156 541.804688 495.320312 541.945312 494.84375 542.039062 C 494.363281 542.136719 493.878906 542.183594 493.394531 542.183594 C 492.90625 542.183594 492.421875 542.136719 491.941406 542.039062 C 491.464844 541.945312 491 541.804688 490.550781 541.617188 C 490.097656 541.429688 489.671875 541.203125 489.265625 540.933594 C 488.859375 540.660156 488.484375 540.351562 488.136719 540.007812 C 487.792969 539.664062 487.484375 539.289062 487.214844 538.882812 C 486.945312 538.476562 486.714844 538.050781 486.527344 537.601562 C 486.339844 537.148438 486.199219 536.683594 486.105469 536.207031 C 486.011719 535.730469 485.960938 535.246094 485.960938 534.757812 C 485.960938 534.269531 486.011719 533.789062 486.105469 533.308594 C 486.199219 532.832031 486.339844 532.367188 486.527344 531.917969 C 486.714844 531.46875 486.945312 531.039062 487.214844 530.632812 C 487.484375 530.226562 487.792969 529.851562 488.136719 529.507812 C 488.484375 529.164062 488.859375 528.855469 489.265625 528.585938 C 489.671875 528.3125 490.097656 528.085938 490.550781 527.898438 C 491 527.710938 491.464844 527.570312 491.941406 527.476562 C 492.421875 527.382812 492.90625 527.335938 493.394531 527.335938 C 493.878906 527.335938 494.363281 527.382812 494.84375 527.476562 C 495.320312 527.570312 495.785156 527.710938 496.234375 527.898438 C 496.6875 528.085938 497.113281 528.3125 497.519531 528.585938 C 497.925781 528.855469 498.300781 529.164062 498.648438 529.507812 C 498.992188 529.851562 499.300781 530.226562 499.570312 530.632812 C 499.84375 531.039062 500.070312 531.46875 500.257812 531.917969 C 500.445312 532.367188 500.585938 532.832031 500.679688 533.308594 C 500.777344 533.789062 500.824219 534.269531 500.824219 534.757812 Z M 500.824219 534.757812 " fill-opacity="1" fill-rule="nonzero"/><path fill="#82cafa" d="M 496.5625 532.332031 L 509.738281 532.332031 L 509.738281 537.183594 L 496.5625 537.183594 Z M 496.5625 532.332031 " fill-opacity="1" fill-rule="nonzero"/><path fill="#06112d" d="M 668.4375 528.421875 C 668.4375 529.160156 668.140625 529.824219 667.652344 530.3125 C 667.164062 530.796875 666.5 531.09375 665.761719 531.09375 L 530.542969 531.09375 C 529.066406 531.09375 527.867188 529.894531 527.867188 528.421875 C 527.867188 527.6875 528.164062 527.019531 528.652344 526.535156 C 529.140625 526.046875 529.804688 525.75 530.542969 525.75 L 665.761719 525.75 C 667.234375 525.75 668.4375 526.949219 668.4375 528.421875 Z M 668.4375 528.421875 " fill-opacity="1" fill-rule="nonzero"/><path fill="#06112d" d="M 668.4375 541.09375 C 668.4375 541.828125 668.140625 542.496094 667.652344 542.980469 C 667.164062 543.46875 666.5 543.765625 665.761719 543.765625 L 530.542969 543.765625 C 529.066406 543.765625 527.867188 542.566406 527.867188 541.09375 C 527.867188 540.355469 528.164062 539.691406 528.652344 539.203125 C 529.140625 538.71875 529.804688 538.421875 530.542969 538.421875 L 665.761719 538.421875 C 667.234375 538.421875 668.4375 539.621094 668.4375 541.09375 Z M 668.4375 541.09375 " fill-opacity="1" fill-rule="nonzero"/><path fill="#ffffff" d="M 480.765625 467.648438 C 480.765625 468.136719 480.714844 468.617188 480.621094 469.097656 C 480.527344 469.574219 480.386719 470.039062 480.199219 470.488281 C 480.011719 470.9375 479.78125 471.367188 479.511719 471.773438 C 479.242188 472.175781 478.933594 472.550781 478.585938 472.898438 C 478.242188 473.242188 477.867188 473.550781 477.460938 473.820312 C 477.054688 474.089844 476.628906 474.320312 476.175781 474.507812 C 475.726562 474.691406 475.261719 474.835938 474.78125 474.929688 C 474.304688 475.023438 473.820312 475.070312 473.332031 475.070312 C 472.847656 475.070312 472.363281 475.023438 471.882812 474.929688 C 471.40625 474.835938 470.941406 474.691406 470.488281 474.507812 C 470.039062 474.320312 469.609375 474.089844 469.207031 473.820312 C 468.800781 473.550781 468.425781 473.242188 468.078125 472.898438 C 467.734375 472.550781 467.425781 472.175781 467.15625 471.773438 C 466.882812 471.367188 466.65625 470.9375 466.46875 470.488281 C 466.28125 470.039062 466.140625 469.574219 466.046875 469.097656 C 465.949219 468.617188 465.902344 468.136719 465.902344 467.648438 C 465.902344 467.160156 465.949219 466.675781 466.046875 466.199219 C 466.140625 465.722656 466.28125 465.257812 466.46875 464.804688 C 466.65625 464.355469 466.882812 463.929688 467.15625 463.523438 C 467.425781 463.117188 467.734375 462.742188 468.078125 462.398438 C 468.425781 462.054688 468.800781 461.746094 469.207031 461.472656 C 469.609375 461.203125 470.039062 460.976562 470.488281 460.789062 C 470.941406 460.601562 471.40625 460.460938 471.882812 460.367188 C 472.363281 460.269531 472.847656 460.222656 473.332031 460.222656 C 473.820312 460.222656 474.304688 460.269531 474.78125 460.367188 C 475.261719 460.460938 475.726562 460.601562 476.175781 460.789062 C 476.628906 460.976562 477.054688 461.203125 477.460938 461.472656 C 477.867188 461.746094 478.242188 462.054688 478.585938 462.398438 C 478.933594 462.742188 479.242188 463.117188 479.511719 463.523438 C 479.78125 463.929688 480.011719 464.355469 480.199219 464.804688 C 480.386719 465.257812 480.527344 465.722656 480.621094 466.199219 C 480.714844 466.675781 480.765625 467.160156 480.765625 467.648438 Z M 480.765625 467.648438 " fill-opacity="1" fill-rule="nonzero"/><path fill="#82cafa" d="M 500.824219 467.648438 C 500.824219 468.136719 500.777344 468.617188 500.679688 469.097656 C 500.585938 469.574219 500.445312 470.039062 500.257812 470.488281 C 500.070312 470.9375 499.84375 471.367188 499.570312 471.773438 C 499.300781 472.175781 498.992188 472.550781 498.648438 472.898438 C 498.300781 473.242188 497.925781 473.550781 497.519531 473.820312 C 497.113281 474.089844 496.6875 474.320312 496.234375 474.507812 C 495.785156 474.691406 495.320312 474.835938 494.84375 474.929688 C 494.363281 475.023438 493.878906 475.070312 493.394531 475.070312 C 492.90625 475.070312 492.421875 475.023438 491.941406 474.929688 C 491.464844 474.835938 491 474.691406 490.550781 474.507812 C 490.097656 474.320312 489.671875 474.089844 489.265625 473.820312 C 488.859375 473.550781 488.484375 473.242188 488.136719 472.898438 C 487.792969 472.550781 487.484375 472.175781 487.214844 471.773438 C 486.945312 471.367188 486.714844 470.9375 486.527344 470.488281 C 486.339844 470.039062 486.199219 469.574219 486.105469 469.097656 C 486.011719 468.617188 485.960938 468.136719 485.960938 467.648438 C 485.960938 467.160156 486.011719 466.675781 486.105469 466.199219 C 486.199219 465.722656 486.339844 465.257812 486.527344 464.804688 C 486.714844 464.355469 486.945312 463.929688 487.214844 463.523438 C 487.484375 463.117188 487.792969 462.742188 488.136719 462.398438 C 488.484375 462.054688 488.859375 461.746094 489.265625 461.472656 C 489.671875 461.203125 490.097656 460.976562 490.550781 460.789062 C 491 460.601562 491.464844 460.460938 491.941406 460.367188 C 492.421875 460.269531 492.90625 460.222656 493.394531 460.222656 C 493.878906 460.222656 494.363281 460.269531 494.84375 460.367188 C 495.320312 460.460938 495.785156 460.601562 496.234375 460.789062 C 496.6875 460.976562 497.113281 461.203125 497.519531 461.472656 C 497.925781 461.746094 498.300781 462.054688 498.648438 462.398438 C 498.992188 462.742188 499.300781 463.117188 499.570312 463.523438 C 499.84375 463.929688 500.070312 464.355469 500.257812 464.804688 C 500.445312 465.257812 500.585938 465.722656 500.679688 466.199219 C 500.777344 466.675781 500.824219 467.160156 500.824219 467.648438 Z M 500.824219 467.648438 " fill-opacity="1" fill-rule="nonzero"/><path fill="#82cafa" d="M 496.5625 465.222656 L 509.738281 465.222656 L 509.738281 470.070312 L 496.5625 470.070312 Z M 496.5625 465.222656 " fill-opacity="1" fill-rule="nonzero"/><path fill="#06112d" d="M 668.4375 461.3125 C 668.4375 462.046875 668.140625 462.714844 667.652344 463.199219 C 667.164062 463.6875 666.5 463.984375 665.761719 463.984375 L 530.542969 463.984375 C 529.066406 463.984375 527.867188 462.785156 527.867188 461.3125 C 527.867188 460.574219 528.164062 459.910156 528.652344 459.421875 C 529.140625 458.9375 529.804688 458.640625 530.542969 458.640625 L 665.761719 458.640625 C 667.234375 458.640625 668.4375 459.839844 668.4375 461.3125 Z M 668.4375 461.3125 " fill-opacity="1" fill-rule="nonzero"/><path fill="#06112d" d="M 668.4375 473.980469 C 668.4375 474.71875 668.140625 475.382812 667.652344 475.871094 C 667.164062 476.359375 666.5 476.65625 665.761719 476.65625 L 530.542969 476.65625 C 529.066406 476.65625 527.867188 475.457031 527.867188 473.980469 C 527.867188 473.246094 528.164062 472.582031 528.652344 472.09375 C 529.140625 471.605469 529.804688 471.308594 530.542969 471.308594 L 665.761719 471.308594 C 667.234375 471.308594 668.4375 472.507812 668.4375 473.980469 Z M 668.4375 473.980469 " fill-opacity="1" fill-rule="nonzero"/><path fill="#ffffff" d="M 480.765625 400.535156 C 480.765625 401.023438 480.714844 401.507812 480.621094 401.984375 C 480.527344 402.464844 480.386719 402.925781 480.199219 403.378906 C 480.011719 403.828125 479.78125 404.253906 479.511719 404.660156 C 479.242188 405.066406 478.933594 405.441406 478.585938 405.785156 C 478.242188 406.132812 477.867188 406.4375 477.460938 406.710938 C 477.054688 406.980469 476.628906 407.210938 476.175781 407.394531 C 475.726562 407.582031 475.261719 407.722656 474.78125 407.816406 C 474.304688 407.914062 473.820312 407.960938 473.332031 407.960938 C 472.847656 407.960938 472.363281 407.914062 471.882812 407.816406 C 471.40625 407.722656 470.941406 407.582031 470.488281 407.394531 C 470.039062 407.210938 469.609375 406.980469 469.207031 406.710938 C 468.800781 406.4375 468.425781 406.132812 468.078125 405.785156 C 467.734375 405.441406 467.425781 405.066406 467.15625 404.660156 C 466.882812 404.253906 466.65625 403.828125 466.46875 403.378906 C 466.28125 402.925781 466.140625 402.464844 466.046875 401.984375 C 465.949219 401.507812 465.902344 401.023438 465.902344 400.535156 C 465.902344 400.050781 465.949219 399.566406 466.046875 399.089844 C 466.140625 398.609375 466.28125 398.144531 466.46875 397.695312 C 466.65625 397.246094 466.882812 396.816406 467.15625 396.410156 C 467.425781 396.007812 467.734375 395.632812 468.078125 395.285156 C 468.425781 394.941406 468.800781 394.632812 469.207031 394.363281 C 469.609375 394.09375 470.039062 393.863281 470.488281 393.675781 C 470.941406 393.492188 471.40625 393.351562 471.882812 393.253906 C 472.363281 393.160156 472.847656 393.113281 473.332031 393.113281 C 473.820312 393.113281 474.304688 393.160156 474.78125 393.253906 C 475.261719 393.351562 475.726562 393.492188 476.175781 393.675781 C 476.628906 393.863281 477.054688 394.09375 477.460938 394.363281 C 477.867188 394.632812 478.242188 394.941406 478.585938 395.285156 C 478.933594 395.632812 479.242188 396.007812 479.511719 396.410156 C 479.78125 396.816406 480.011719 397.246094 480.199219 397.695312 C 480.386719 398.144531 480.527344 398.609375 480.621094 399.085938 C 480.714844 399.566406 480.765625 400.050781 480.765625 400.535156 Z M 480.765625 400.535156 " fill-opacity="1" fill-rule="nonzero"/><path fill="#82cafa" d="M 500.824219 400.535156 C 500.824219 401.023438 500.777344 401.507812 500.679688 401.984375 C 500.585938 402.464844 500.445312 402.925781 500.257812 403.378906 C 500.070312 403.828125 499.84375 404.253906 499.570312 404.660156 C 499.300781 405.066406 498.992188 405.441406 498.648438 405.785156 C 498.300781 406.132812 497.925781 406.4375 497.519531 406.710938 C 497.113281 406.980469 496.6875 407.210938 496.234375 407.394531 C 495.785156 407.582031 495.320312 407.722656 494.84375 407.816406 C 494.363281 407.914062 493.878906 407.960938 493.394531 407.960938 C 492.90625 407.960938 492.421875 407.914062 491.941406 407.816406 C 491.464844 407.722656 491 407.582031 490.550781 407.394531 C 490.097656 407.210938 489.671875 406.980469 489.265625 406.710938 C 488.859375 406.4375 488.484375 406.132812 488.136719 405.785156 C 487.792969 405.441406 487.484375 405.066406 487.214844 404.660156 C 486.945312 404.253906 486.714844 403.828125 486.527344 403.378906 C 486.339844 402.925781 486.199219 402.464844 486.105469 401.984375 C 486.011719 401.507812 485.960938 401.023438 485.960938 400.535156 C 485.960938 400.050781 486.011719 399.566406 486.105469 399.089844 C 486.199219 398.609375 486.339844 398.144531 486.527344 397.695312 C 486.714844 397.246094 486.945312 396.816406 487.214844 396.410156 C 487.484375 396.007812 487.792969 395.632812 488.136719 395.285156 C 488.484375 394.941406 488.859375 394.632812 489.265625 394.363281 C 489.671875 394.09375 490.097656 393.863281 490.550781 393.675781 C 491 393.492188 491.464844 393.351562 491.941406 393.253906 C 492.421875 393.160156 492.90625 393.113281 493.394531 393.113281 C 493.878906 393.113281 494.363281 393.160156 494.84375 393.253906 C 495.320312 393.351562 495.785156 393.492188 496.234375 393.675781 C 496.6875 393.863281 497.113281 394.09375 497.519531 394.363281 C 497.925781 394.632812 498.300781 394.941406 498.648438 395.285156 C 498.992188 395.632812 499.300781 396.007812 499.570312 396.410156 C 499.84375 396.816406 500.070312 397.246094 500.257812 397.695312 C 500.445312 398.144531 500.585938 398.609375 500.679688 399.085938 C 500.777344 399.566406 500.824219 400.050781 500.824219 400.535156 Z M 500.824219 400.535156 " fill-opacity="1" fill-rule="nonzero"/><path fill="#82cafa" d="M 496.5625 398.109375 L 509.738281 398.109375 L 509.738281 402.960938 L 496.5625 402.960938 Z M 496.5625 398.109375 " fill-opacity="1" fill-rule="nonzero"/><path fill="#06112d" d="M 668.4375 394.203125 C 668.4375 394.9375 668.140625 395.601562 667.652344 396.089844 C 667.164062 396.578125 666.5 396.875 665.761719 396.875 L 530.542969 396.875 C 529.066406 396.875 527.867188 395.675781 527.867188 394.203125 C 527.867188 393.464844 528.164062 392.800781 528.652344 392.3125 C 529.140625 391.824219 529.804688 391.527344 530.542969 391.527344 L 665.761719 391.527344 C 667.234375 391.527344 668.4375 392.726562 668.4375 394.203125 Z M 668.4375 394.203125 " fill-opacity="1" fill-rule="nonzero"/><path fill="#06112d" d="M 668.4375 406.871094 C 668.4375 407.609375 668.140625 408.273438 667.652344 408.761719 C 667.164062 409.246094 666.5 409.542969 665.761719 409.542969 L 530.542969 409.542969 C 529.066406 409.542969 527.867188 408.34375 527.867188 406.871094 C 527.867188 406.136719 528.164062 405.46875 528.652344 404.984375 C 529.140625 404.496094 529.804688 404.199219 530.542969 404.199219 L 665.761719 404.199219 C 667.234375 404.199219 668.4375 405.398438 668.4375 406.871094 Z M 668.4375 406.871094 " fill-opacity="1" fill-rule="nonzero"/><path fill="#fcc283" d="M 665.761719 525.75 L 578.425781 525.75 L 578.425781 531.09375 L 665.761719 531.09375 C 666.5 531.09375 667.164062 530.796875 667.652344 530.3125 C 668.140625 529.824219 668.4375 529.160156 668.4375 528.421875 C 668.4375 526.949219 667.234375 525.75 665.761719 525.75 Z M 665.761719 525.75 " fill-opacity="1" fill-rule="nonzero"/><path fill="#fe6081" d="M 665.761719 538.421875 L 555.859375 538.421875 L 555.859375 543.765625 L 665.761719 543.765625 C 666.5 543.765625 667.164062 543.46875 667.652344 542.980469 C 668.140625 542.496094 668.4375 541.828125 668.4375 541.09375 C 668.4375 539.621094 667.234375 538.421875 665.761719 538.421875 Z M 665.761719 538.421875 " fill-opacity="1" fill-rule="nonzero"/><path fill="#fcc283" d="M 665.761719 458.640625 L 578.425781 458.640625 L 578.425781 463.984375 L 665.761719 463.984375 C 666.5 463.984375 667.164062 463.6875 667.652344 463.199219 C 668.140625 462.714844 668.4375 462.050781 668.4375 461.3125 C 668.4375 459.839844 667.234375 458.640625 665.761719 458.640625 Z M 665.761719 458.640625 " fill-opacity="1" fill-rule="nonzero"/><path fill="#fe6081" d="M 665.761719 471.308594 L 555.859375 471.308594 L 555.859375 476.65625 L 665.761719 476.65625 C 666.5 476.65625 667.164062 476.355469 667.652344 475.871094 C 668.140625 475.382812 668.4375 474.71875 668.4375 473.980469 C 668.4375 472.507812 667.234375 471.308594 665.761719 471.308594 Z M 665.761719 471.308594 " fill-opacity="1" fill-rule="nonzero"/><path fill="#fcc283" d="M 665.761719 391.527344 L 578.425781 391.527344 L 578.425781 396.875 L 665.761719 396.875 C 666.5 396.875 667.164062 396.578125 667.652344 396.089844 C 668.140625 395.601562 668.4375 394.9375 668.4375 394.203125 C 668.4375 392.730469 667.234375 391.527344 665.761719 391.527344 Z M 665.761719 391.527344 " fill-opacity="1" fill-rule="nonzero"/><path fill="#fe6081" d="M 665.761719 404.199219 L 555.859375 404.199219 L 555.859375 409.542969 L 665.761719 409.542969 C 666.5 409.542969 667.164062 409.246094 667.652344 408.757812 C 668.140625 408.273438 668.4375 407.609375 668.4375 406.871094 C 668.4375 405.398438 667.234375 404.199219 665.761719 404.199219 Z M 665.761719 404.199219 " fill-opacity="1" fill-rule="nonzero"/><path fill="#fec3bd" d="M 392.03125 520.625 C 387.929688 527.410156 345.375 547.625 345.375 547.625 L 325.90625 521.703125 C 325.90625 521.703125 342.460938 490.292969 348.605469 490.039062 C 354.679688 489.804688 348.867188 506.28125 348.867188 506.28125 C 351.617188 503.859375 372.125 485.878906 374.523438 492.476562 C 375.398438 494.871094 372.609375 500.261719 370.984375 502.117188 C 377.171875 498.066406 387.074219 493.9375 388.433594 497.105469 C 390.324219 501.511719 382.679688 506.246094 379.933594 507.78125 C 382.792969 506.316406 391.207031 502.4375 392.167969 507.125 C 392.753906 509.980469 386.410156 513.9375 383.636719 516.003906 C 386.175781 515.242188 394.707031 516.207031 392.03125 520.625 Z M 392.03125 520.625 " fill-opacity="1" fill-rule="nonzero"/><path fill="#0c8ff9" d="M 350.636719 547.710938 C 350.636719 547.710938 313.359375 610.050781 278.277344 616.757812 C 276.476562 617.113281 274.707031 617.28125 273.007812 617.28125 C 252.9375 617.230469 225.324219 590.347656 204.140625 565.5625 C 186.035156 544.398438 172.605469 524.757812 172.605469 524.757812 L 211.105469 464.015625 C 225.710938 476.980469 251.242188 519.527344 278.277344 553.535156 L 325.183594 518.832031 Z M 350.636719 547.710938 " fill-opacity="1" fill-rule="nonzero"/><path fill="#0e6bb9" d="M 278.277344 616.757812 C 276.476562 617.113281 274.707031 617.28125 273.007812 617.28125 C 252.9375 617.230469 225.324219 590.347656 204.140625 565.5625 C 209.523438 551.207031 226.433594 503.457031 226.433594 503.457031 C 226.433594 503.457031 247.855469 593.304688 278.277344 616.757812 Z M 278.277344 616.757812 " fill-opacity="1" fill-rule="nonzero"/><path fill="#11153a" d="M 236.101562 787.179688 L 234.519531 687.875 L 154.488281 691.324219 L 164.042969 787.179688 Z M 236.101562 787.179688 " fill-opacity="1" fill-rule="nonzero"/><path fill="#070d2b" d="M 179.566406 787.179688 L 189.261719 691.324219 L 154.488281 691.324219 L 164.042969 787.179688 Z M 179.566406 787.179688 " fill-opacity="1" fill-rule="nonzero"/><path fill="#11153a" d="M 171.398438 787.179688 L 181.09375 691.332031 L 91.214844 691.332031 L 91.214844 787.179688 Z M 171.398438 787.179688 " fill-opacity="1" fill-rule="nonzero"/><path fill="#0c8ff9" d="M 88.167969 681.953125 C 88.976562 660.105469 89.710938 633.164062 88.867188 623.542969 C 87.035156 602.609375 78.824219 572.113281 74.242188 543.390625 C 70.058594 517.292969 68.890625 492.664062 78.230469 478.015625 C 86.890625 464.429688 132.234375 455.8125 132.234375 455.8125 L 172.703125 453.398438 C 172.703125 453.398438 207.882812 454 217.769531 471.230469 C 232.945312 497.6875 232.558594 586.992188 232.558594 586.992188 C 232.558594 586.992188 239.425781 697.820312 240.378906 711.785156 L 86.890625 711.785156 C 87.089844 707.925781 87.644531 695.988281 88.167969 681.953125 Z M 88.167969 681.953125 " fill-opacity="1" fill-rule="nonzero"/><path fill="#06112d" d="M 201.988281 318.226562 C 201.988281 318.226562 208.230469 352.101562 187.394531 364.738281 C 171.164062 374.585938 168.769531 341.960938 168.503906 327.058594 C 168.453125 324.304688 171.703125 322.808594 173.777344 324.625 L 187.765625 336.859375 " fill-opacity="1" fill-rule="nonzero"/><path fill="#fec3bd" d="M 159.5 482.152344 C 139.597656 481.226562 121.921875 459.566406 121.894531 458.910156 C 121.15625 443.328125 117.785156 407.359375 114.464844 396.21875 C 113.726562 393.765625 115.878906 391.460938 118.171875 392.234375 L 167.058594 408.546875 C 168.558594 409.050781 169.433594 410.730469 169.03125 412.367188 C 168.417969 414.910156 167.976562 417.453125 167.667969 419.921875 C 167.558594 420.816406 167.472656 421.691406 167.390625 422.570312 C 166.765625 430.019531 167.335938 436.800781 168.101562 441.765625 C 168.265625 442.851562 168.476562 444.742188 168.726562 446.910156 C 168.726562 446.925781 168.726562 446.925781 168.726562 446.925781 C 169.320312 452.503906 169.53125 455.835938 169.753906 456.652344 C 169.863281 457.054688 170.75 482.675781 159.5 482.152344 Z M 159.5 482.152344 " fill-opacity="1" fill-rule="nonzero"/><path fill="#f18b89" d="M 168.726562 446.910156 C 168.726562 446.925781 168.726562 446.925781 168.726562 446.925781 C 168.726562 446.925781 141.640625 436.242188 136.855469 427.058594 C 130.546875 414.941406 163.433594 420.816406 163.433594 420.816406 C 163.433594 420.816406 165.15625 421.574219 167.390625 422.570312 C 166.765625 430.019531 167.335938 436.800781 168.101562 441.765625 C 168.265625 442.851562 168.476562 444.742188 168.726562 446.910156 Z M 168.726562 446.910156 " fill-opacity="1" fill-rule="nonzero"/><path fill="#fec3bd" d="M 178.714844 437.222656 C 149.910156 444.980469 124.191406 415.996094 117.152344 403.9375 L 117.152344 403.921875 C 115.910156 401.785156 115.066406 400.125 114.625 399.214844 C 114.382812 398.714844 114.019531 398.296875 113.550781 397.984375 C 109.832031 395.496094 92.980469 383.484375 97.210938 372.828125 C 99.972656 365.894531 104.695312 365.074219 108.171875 365.605469 C 110.214844 365.921875 111.996094 364.125 111.722656 362.078125 C 104.230469 306.4375 165.5625 308.847656 182.4375 333.957031 C 183.183594 335.058594 183.941406 336.414062 184.703125 337.988281 C 195.683594 360.429688 209.65625 428.886719 178.714844 437.222656 Z M 178.714844 437.222656 " fill-opacity="1" fill-rule="nonzero"/><path fill="#06112d" d="M 197.8125 340.824219 C 190.621094 364.617188 131.589844 332.886719 134.074219 343.550781 C 135.898438 351.433594 128.519531 354.160156 124.546875 355.050781 C 123.136719 355.363281 122.132812 356.605469 122.089844 358.046875 L 121.621094 374 C 121.578125 375.558594 120.402344 376.855469 118.851562 377.054688 C 117.378906 377.246094 115.972656 376.390625 115.460938 375 L 113 368.300781 C 112.695312 367.480469 112.074219 366.804688 111.261719 366.472656 C 108.292969 365.261719 100.953125 363.433594 97.210938 372.828125 C 92.980469 383.484375 109.832031 395.496094 113.550781 397.984375 C 114.019531 398.296875 114.382812 398.714844 114.625 399.214844 C 115.066406 400.125 115.910156 401.785156 117.152344 403.921875 L 117.152344 403.9375 L 119.851562 414.488281 C 120.621094 417.496094 120.960938 439.773438 120.960938 439.773438 C 120.960938 439.773438 75.664062 380.554688 78.261719 351.414062 C 81.855469 311.082031 103.058594 330.167969 106.289062 314.554688 C 109.519531 298.941406 133.820312 292.738281 149.699219 295.964844 C 165.5625 299.191406 192.484375 300.664062 198.929688 308.605469 C 204.613281 315.59375 201.359375 329.09375 197.8125 340.824219 Z M 197.8125 340.824219 " fill-opacity="1" fill-rule="nonzero"/><path fill="#06112d" d="M 157.585938 377.558594 C 157.601562 377.90625 157.597656 378.25 157.566406 378.59375 C 157.535156 378.933594 157.484375 379.265625 157.410156 379.589844 C 157.339844 379.914062 157.242188 380.222656 157.128906 380.515625 C 157.011719 380.808594 156.878906 381.082031 156.726562 381.335938 C 156.574219 381.585938 156.40625 381.816406 156.222656 382.015625 C 156.042969 382.214844 155.847656 382.386719 155.636719 382.53125 C 155.429688 382.671875 155.214844 382.78125 154.992188 382.859375 C 154.769531 382.9375 154.542969 382.984375 154.308594 382.992188 C 154.078125 383.003906 153.847656 382.980469 153.621094 382.921875 C 153.390625 382.867188 153.164062 382.777344 152.945312 382.652344 C 152.726562 382.53125 152.515625 382.378906 152.316406 382.195312 C 152.113281 382.011719 151.925781 381.800781 151.75 381.5625 C 151.578125 381.324219 151.417969 381.066406 151.277344 380.785156 C 151.136719 380.503906 151.015625 380.203125 150.910156 379.886719 C 150.808594 379.570312 150.726562 379.246094 150.664062 378.90625 C 150.605469 378.570312 150.566406 378.230469 150.550781 377.882812 C 150.535156 377.535156 150.542969 377.191406 150.570312 376.851562 C 150.601562 376.507812 150.652344 376.175781 150.726562 375.851562 C 150.800781 375.527344 150.894531 375.21875 151.007812 374.925781 C 151.125 374.632812 151.257812 374.359375 151.410156 374.105469 C 151.5625 373.855469 151.730469 373.628906 151.914062 373.425781 C 152.097656 373.226562 152.292969 373.054688 152.5 372.910156 C 152.707031 372.769531 152.921875 372.660156 153.144531 372.582031 C 153.367188 372.503906 153.597656 372.460938 153.828125 372.449219 C 154.058594 372.4375 154.289062 372.460938 154.519531 372.519531 C 154.746094 372.574219 154.972656 372.664062 155.191406 372.789062 C 155.410156 372.910156 155.621094 373.066406 155.824219 373.246094 C 156.023438 373.429688 156.210938 373.640625 156.386719 373.878906 C 156.558594 374.117188 156.71875 374.375 156.859375 374.660156 C 157 374.941406 157.125 375.238281 157.226562 375.554688 C 157.328125 375.871094 157.410156 376.199219 157.472656 376.535156 C 157.53125 376.871094 157.570312 377.214844 157.585938 377.558594 Z M 157.585938 377.558594 " fill-opacity="1" fill-rule="nonzero"/><path fill="#06112d" d="M 148.71875 369.753906 C 148.472656 369.753906 148.226562 369.644531 148.0625 369.4375 C 147.773438 369.078125 147.832031 368.550781 148.195312 368.265625 C 154.941406 362.886719 159.164062 366.558594 159.339844 366.714844 C 159.683594 367.023438 159.710938 367.554688 159.402344 367.894531 C 159.09375 368.238281 158.566406 368.265625 158.226562 367.960938 C 158.070312 367.828125 154.8125 365.132812 149.238281 369.570312 C 149.085938 369.695312 148.898438 369.753906 148.71875 369.753906 Z M 148.71875 369.753906 " fill-opacity="1" fill-rule="nonzero"/><path fill="#06112d" d="M 187.351562 377.558594 C 187.367188 377.90625 187.359375 378.25 187.328125 378.59375 C 187.300781 378.933594 187.25 379.265625 187.175781 379.589844 C 187.101562 379.914062 187.007812 380.222656 186.890625 380.515625 C 186.777344 380.808594 186.644531 381.082031 186.492188 381.335938 C 186.339844 381.585938 186.171875 381.816406 185.988281 382.015625 C 185.804688 382.214844 185.609375 382.386719 185.402344 382.53125 C 185.195312 382.671875 184.980469 382.78125 184.753906 382.859375 C 184.53125 382.9375 184.304688 382.984375 184.074219 382.992188 C 183.84375 383.003906 183.613281 382.980469 183.382812 382.921875 C 183.152344 382.867188 182.929688 382.777344 182.710938 382.652344 C 182.488281 382.53125 182.28125 382.378906 182.078125 382.195312 C 181.878906 382.011719 181.691406 381.800781 181.515625 381.5625 C 181.339844 381.324219 181.183594 381.066406 181.042969 380.785156 C 180.898438 380.503906 180.777344 380.203125 180.675781 379.886719 C 180.570312 379.570312 180.488281 379.246094 180.429688 378.90625 C 180.367188 378.570312 180.328125 378.230469 180.3125 377.882812 C 180.296875 377.535156 180.304688 377.191406 180.335938 376.851562 C 180.363281 376.507812 180.414062 376.175781 180.488281 375.851562 C 180.5625 375.527344 180.65625 375.21875 180.773438 374.925781 C 180.886719 374.632812 181.019531 374.359375 181.171875 374.105469 C 181.324219 373.855469 181.492188 373.628906 181.675781 373.425781 C 181.859375 373.226562 182.054688 373.054688 182.261719 372.910156 C 182.46875 372.769531 182.683594 372.660156 182.910156 372.582031 C 183.132812 372.503906 183.359375 372.460938 183.589844 372.449219 C 183.820312 372.4375 184.050781 372.460938 184.28125 372.519531 C 184.511719 372.574219 184.734375 372.664062 184.957031 372.789062 C 185.175781 372.910156 185.386719 373.066406 185.585938 373.246094 C 185.785156 373.429688 185.972656 373.640625 186.148438 373.878906 C 186.324219 374.117188 186.480469 374.375 186.625 374.65625 C 186.765625 374.941406 186.886719 375.238281 186.988281 375.554688 C 187.09375 375.871094 187.175781 376.199219 187.234375 376.535156 C 187.296875 376.871094 187.335938 377.214844 187.351562 377.558594 Z M 187.351562 377.558594 " fill-opacity="1" fill-rule="nonzero"/><path fill="#06112d" d="M 178.480469 369.753906 C 178.234375 369.753906 177.988281 369.644531 177.824219 369.4375 C 177.535156 369.078125 177.597656 368.550781 177.957031 368.261719 C 184.707031 362.886719 188.929688 366.558594 189.105469 366.714844 C 189.449219 367.023438 189.476562 367.554688 189.164062 367.894531 C 188.855469 368.238281 188.328125 368.265625 187.988281 367.960938 C 187.832031 367.828125 184.578125 365.128906 179 369.570312 C 178.847656 369.695312 178.660156 369.753906 178.480469 369.753906 Z M 178.480469 369.753906 " fill-opacity="1" fill-rule="nonzero"/><path fill="#f18b89" d="M 175.003906 405.199219 C 174.773438 405.199219 174.542969 405.105469 174.378906 404.917969 C 174.070312 404.574219 174.101562 404.046875 174.449219 403.738281 C 175.476562 402.824219 176.066406 401.605469 176.105469 400.3125 C 176.140625 399.050781 175.648438 397.84375 174.714844 396.90625 C 174.308594 396.5 173.824219 396.128906 173.3125 395.738281 C 172.976562 395.480469 172.644531 395.222656 172.324219 394.957031 C 170.09375 393.0625 168.59375 390.402344 167.984375 387.265625 C 167.453125 384.519531 167.621094 381.757812 167.785156 379.085938 C 167.8125 378.625 168.214844 378.269531 168.667969 378.300781 C 169.132812 378.332031 169.484375 378.726562 169.453125 379.1875 C 169.296875 381.753906 169.132812 384.410156 169.628906 386.949219 C 170.164062 389.707031 171.472656 392.035156 173.410156 393.679688 C 173.703125 393.933594 174.015625 394.171875 174.332031 394.410156 C 174.863281 394.816406 175.414062 395.238281 175.898438 395.726562 C 177.160156 396.992188 177.828125 398.636719 177.777344 400.363281 C 177.722656 402.121094 176.9375 403.761719 175.558594 404.988281 C 175.402344 405.128906 175.203125 405.199219 175.003906 405.199219 Z M 175.003906 405.199219 " fill-opacity="1" fill-rule="nonzero"/><path fill="#f18b89" d="M 166.21875 419.808594 C 161.722656 419.808594 157.269531 417.453125 154.765625 413.714844 C 154.511719 413.332031 154.613281 412.8125 154.996094 412.558594 C 155.378906 412.300781 155.902344 412.402344 156.15625 412.785156 C 158.433594 416.183594 162.53125 418.28125 166.632812 418.128906 C 167.113281 418.105469 167.484375 418.472656 167.5 418.933594 C 167.519531 419.394531 167.15625 419.785156 166.695312 419.800781 C 166.539062 419.808594 166.378906 419.808594 166.21875 419.808594 Z M 166.21875 419.808594 " fill-opacity="1" fill-rule="nonzero"/><path fill="#0e6bb9" d="M 206.304688 627.882812 L 201.449219 674.601562 L 169.761719 678.648438 L 88.167969 681.953125 C 88.976562 660.105469 89.710938 633.164062 88.867188 623.542969 C 87.035156 602.609375 78.824219 572.113281 74.242188 543.390625 L 110.246094 501.53125 C 110.246094 501.53125 120.558594 521.707031 124.148438 536.605469 C 127.742188 551.488281 130.257812 602.828125 130.257812 602.828125 Z M 206.304688 627.882812 " fill-opacity="1" fill-rule="nonzero"/><path fill="#a7abc6" d="M 225.6875 653.046875 L 311.476562 653.046875 L 311.476562 669.164062 L 213.976562 669.164062 L 213.976562 667.808594 C 213.976562 659.65625 219.21875 653.046875 225.6875 653.046875 Z M 225.6875 653.046875 " fill-opacity="1" fill-rule="nonzero"/><path fill="#a7abc6" d="M 323.632812 669.164062 L 266.59375 669.164062 L 282.972656 567.570312 C 285.472656 563.433594 289.019531 560.367188 293.195312 560.367188 L 323.632812 560.367188 Z M 323.632812 669.164062 " fill-opacity="1" fill-rule="nonzero"/><path fill="#d7daf4" d="M 276.515625 669.164062 L 390.050781 669.164062 C 397.539062 669.164062 403.890625 663.671875 404.972656 656.269531 L 419.128906 569.996094 C 419.878906 564.933594 415.9375 560.371094 410.800781 560.371094 L 301.222656 560.371094 C 297.050781 560.371094 293.5 563.433594 292.890625 567.570312 Z M 276.515625 669.164062 " fill-opacity="1" fill-rule="nonzero"/><path fill="#a7abc6" d="M 344.03125 633.75 C 351.023438 633.75 357.730469 628.0625 359.015625 621.078125 C 360.28125 614.070312 355.644531 608.402344 348.632812 608.402344 C 341.640625 608.402344 334.933594 614.070312 333.648438 621.078125 C 332.382812 628.082031 337.019531 633.75 344.03125 633.75 Z M 344.03125 633.75 " fill-opacity="1" fill-rule="nonzero"/><path fill="#fec3bd" d="M 261.851562 665.921875 C 260.03125 672.394531 251.140625 672.210938 251.140625 672.210938 C 251.140625 672.210938 258.421875 675.472656 248.074219 678.8125 C 233.789062 683.40625 201.734375 670.910156 201.734375 670.910156 L 205.609375 633.761719 C 205.609375 633.761719 228.253906 626.75 231.980469 631.714844 C 235.703125 636.675781 223.421875 642.691406 223.421875 642.691406 C 223.421875 642.691406 256.757812 638.476562 256.75 647.414062 C 256.746094 651.796875 246.542969 651.992188 242.910156 651.929688 C 247.601562 652.144531 262.765625 651.625 260.460938 657.507812 C 259.441406 660.109375 255.617188 661.136719 252.351562 661.703125 C 258.730469 661.472656 263.167969 661.238281 261.851562 665.921875 Z M 261.851562 665.921875 " fill-opacity="1" fill-rule="nonzero"/><path fill="#0c8ff9" d="M 71.109375 650.851562 C 89.074219 668.644531 201.449219 674.601562 201.449219 674.601562 L 206.304688 627.882812 L 120.707031 606.964844 C 120.707031 606.964844 121.675781 538.226562 116.167969 516.378906 C 108.152344 484.550781 83.195312 473.050781 83.195312 473.050781 C 80.757812 475.871094 66.679688 483.910156 64.15625 511.863281 C 59.851562 559.539062 53.347656 633.257812 71.109375 650.851562 Z M 71.109375 650.851562 " fill-opacity="1" fill-rule="nonzero"/><path fill="#37c092" d="M 619.660156 733.210938 C 619.582031 734.1875 619.523438 735.179688 619.445312 736.136719 L 619.445312 736.15625 C 618.742188 736.660156 618.101562 737.167969 617.496094 737.675781 C 616.910156 738.164062 616.324219 738.746094 615.777344 739.410156 C 615.542969 739.683594 615.308594 739.976562 615.09375 740.269531 C 614.707031 740.753906 614.335938 741.28125 613.984375 741.828125 C 612.871094 743.484375 611.875 745.296875 611.058594 746.953125 L 608.96875 746.039062 C 610.160156 743.875 611.46875 741.984375 612.832031 740.289062 C 613.183594 739.820312 613.574219 739.351562 613.964844 738.921875 C 614.570312 738.203125 615.210938 737.519531 615.835938 736.875 C 617.125 735.53125 618.414062 734.324219 619.660156 733.210938 Z M 619.660156 733.210938 " fill-opacity="1" fill-rule="nonzero"/><path fill="#238a6f" d="M 616.660156 608.394531 C 616.660156 608.394531 615.042969 622.695312 612.925781 629.210938 C 610.8125 635.722656 608.804688 641.945312 610.539062 657.519531 C 612.273438 673.097656 613.28125 674.386719 613.683594 678.425781 C 614.082031 682.464844 613.644531 699.503906 614.53125 702.308594 C 615.421875 705.117188 609.660156 724.648438 609.292969 733.023438 C 609.183594 735.542969 608.972656 738.410156 608.785156 741.339844 L 609.847656 741.328125 C 610.167969 737.761719 610.820312 733.816406 612.011719 729.683594 C 616.507812 714.054688 614.46875 712.054688 622.1875 702.246094 C 629.910156 692.441406 630.324219 672.226562 630.324219 672.226562 C 630.324219 672.226562 633.894531 649.246094 630.054688 639.175781 C 626.21875 629.101562 625.847656 619 616.660156 608.394531 Z M 616.660156 608.394531 " fill-opacity="1" fill-rule="nonzero"/><path fill="#238a6f" d="M 592.890625 687.90625 C 596.511719 680.082031 590.929688 659.988281 596.101562 650.96875 C 601.273438 641.949219 598.46875 627.882812 597.21875 622.480469 C 595.96875 617.078125 597.269531 613.386719 598.304688 607.671875 C 599.34375 601.957031 596.984375 593.683594 596.984375 593.683594 C 596.847656 600.757812 591.539062 610.472656 587.6875 616.710938 C 583.839844 622.949219 576.609375 639.898438 577.539062 647.539062 C 578.46875 655.183594 578.039062 655.761719 578.039062 655.761719 C 575.378906 666.035156 578.144531 668.898438 577.371094 680.019531 C 576.59375 691.140625 583.664062 690.21875 584.011719 697.289062 C 584.355469 704.355469 593.699219 716.261719 598.050781 724.742188 C 600.316406 729.15625 601.191406 735.917969 601.515625 741.398438 L 604.957031 741.367188 C 603.511719 727.511719 597.800781 717.902344 594.371094 710.195312 C 589.957031 700.269531 589.269531 695.730469 592.890625 687.90625 Z M 592.890625 687.90625 " fill-opacity="1" fill-rule="nonzero"/><path fill="#37c092" d="M 603.722656 738.921875 C 603.332031 739.351562 602.941406 739.820312 602.59375 740.289062 C 601.8125 739.292969 600.992188 738.414062 600.152344 737.734375 C 595.21875 733.757812 586.339844 729.058594 584.214844 724.867188 C 582.105469 720.65625 578.070312 723.132812 575.53125 716.175781 C 572.996094 709.214844 570.558594 708.222656 569.386719 701.28125 C 569.386719 701.28125 569.503906 700.8125 566.871094 696.425781 C 564.257812 692.039062 564.0625 679.800781 564.726562 674.984375 C 565.367188 670.167969 565.972656 662.839844 564.140625 658.511719 C 564.140625 658.511719 567.808594 662.898438 568.722656 666.640625 C 569.621094 670.382812 569.835938 672.976562 572.058594 675.921875 C 574.265625 678.863281 579.765625 686.640625 579.0625 693.503906 C 578.363281 700.367188 587.160156 711.046875 587.082031 716.777344 C 586.984375 722.488281 588.644531 725.0625 593.988281 729.898438 C 596.71875 732.375 600.289062 735.082031 603.722656 738.921875 Z M 603.722656 738.921875 " fill-opacity="1" fill-rule="nonzero"/><path fill="#37c092" d="M 609.421875 733.210938 C 608.171875 734.324219 606.882812 735.53125 605.597656 736.875 C 605.8125 727.421875 606.121094 718.277344 604.894531 714.691406 C 602.632812 708.085938 599.9375 699.253906 600.074219 691.007812 C 600.210938 682.761719 588.488281 677.226562 588.566406 662.332031 C 588.664062 647.4375 584.976562 639.835938 581.875 629.992188 C 578.769531 620.167969 582.652344 602.039062 582.652344 602.039062 C 605.539062 618.941406 604.679688 637.457031 610.238281 652.898438 C 615.800781 668.335938 613.261719 679.429688 612.96875 691.710938 C 612.660156 703.972656 609.496094 709.644531 609.945312 716.679688 C 610.179688 720.210938 609.886719 726.816406 609.421875 733.210938 Z M 609.421875 733.210938 " fill-opacity="1" fill-rule="nonzero"/><path fill="#37c092" d="M 639.855469 695.824219 C 637.492188 699.9375 637.414062 700.636719 637.414062 700.714844 C 636.382812 707.695312 633.941406 708.726562 631.523438 715.726562 C 629.105469 722.722656 625.027344 720.304688 622.980469 724.539062 C 621.183594 728.242188 614.179688 732.433594 609.207031 736.136719 C 609.285156 735.179688 609.34375 734.1875 609.421875 733.210938 C 610.804688 731.964844 612.132812 730.832031 613.300781 729.742188 C 618.570312 724.828125 620.167969 722.238281 619.992188 716.503906 C 619.820312 710.792969 628.441406 699.953125 627.621094 693.113281 C 626.820312 686.25 632.1875 678.394531 634.351562 675.414062 C 636.519531 672.429688 636.695312 669.839844 637.53125 666.074219 C 638.390625 662.3125 641.980469 657.867188 641.980469 657.867188 C 640.226562 662.234375 640.945312 669.542969 641.667969 674.359375 C 642.410156 679.175781 642.410156 691.398438 639.855469 695.824219 Z M 639.855469 695.824219 " fill-opacity="1" fill-rule="nonzero"/><path fill="#37c092" d="M 609.421875 733.210938 C 609.34375 734.1875 609.285156 735.179688 609.207031 736.136719 L 609.207031 736.15625 C 609.050781 738.046875 608.894531 739.878906 608.738281 741.554688 L 605.890625 741.574219 L 605.5 741.574219 L 605.5 741.085938 C 605.519531 740.519531 605.519531 739.957031 605.539062 739.410156 C 605.558594 738.554688 605.578125 737.714844 605.597656 736.875 C 606.882812 735.53125 608.171875 734.324219 609.421875 733.210938 Z M 609.421875 733.210938 " fill-opacity="1" fill-rule="nonzero"/><path fill="#fcc283" d="M 575.132812 725.78125 C 572.308594 725.804688 570.085938 728.179688 570.261719 730.996094 C 571.3125 747.871094 575.246094 787.769531 588.882812 786.464844 L 618.261719 786.226562 C 631.917969 787.3125 635.203125 747.351562 635.980469 730.460938 C 636.109375 727.644531 633.847656 725.304688 631.023438 725.328125 Z M 575.132812 725.78125 " fill-opacity="1" fill-rule="nonzero"/><path fill="#dcdffe" d="M 299.6875 299.238281 L 300.875 298.0625 L 359.820312 357.464844 L 358.628906 358.644531 Z M 299.6875 299.238281 " fill-opacity="1" fill-rule="nonzero"/><path fill="#dcdffe" d="M 415.351562 236.316406 L 416.695312 235.320312 L 466.578125 302.5 L 465.234375 303.496094 Z M 415.351562 236.316406 " fill-opacity="1" fill-rule="nonzero"/><path fill="#f9dae0" d="M 317.386719 281.054688 C 317.386719 282.191406 317.332031 283.324219 317.222656 284.453125 C 317.109375 285.585938 316.941406 286.707031 316.722656 287.820312 C 316.5 288.9375 316.222656 290.035156 315.894531 291.125 C 315.5625 292.210938 315.179688 293.277344 314.746094 294.328125 C 314.308594 295.378906 313.824219 296.402344 313.289062 297.40625 C 312.753906 298.40625 312.167969 299.378906 311.539062 300.324219 C 310.90625 301.269531 310.230469 302.179688 309.507812 303.058594 C 308.785156 303.9375 308.023438 304.777344 307.21875 305.582031 C 306.417969 306.386719 305.574219 307.148438 304.695312 307.867188 C 303.816406 308.589844 302.90625 309.265625 301.960938 309.894531 C 301.015625 310.527344 300.039062 311.109375 299.039062 311.644531 C 298.035156 312.179688 297.007812 312.664062 295.957031 313.101562 C 294.90625 313.535156 293.839844 313.917969 292.75 314.246094 C 291.664062 314.578125 290.5625 314.851562 289.445312 315.074219 C 288.332031 315.296875 287.207031 315.460938 286.078125 315.574219 C 284.945312 315.683594 283.8125 315.742188 282.671875 315.742188 C 281.535156 315.742188 280.402344 315.683594 279.269531 315.574219 C 278.140625 315.460938 277.015625 315.296875 275.902344 315.074219 C 274.785156 314.851562 273.683594 314.578125 272.597656 314.246094 C 271.507812 313.917969 270.441406 313.535156 269.390625 313.101562 C 268.339844 312.664062 267.3125 312.179688 266.308594 311.644531 C 265.308594 311.109375 264.332031 310.527344 263.386719 309.894531 C 262.441406 309.265625 261.53125 308.589844 260.652344 307.867188 C 259.773438 307.148438 258.929688 306.386719 258.128906 305.582031 C 257.324219 304.777344 256.5625 303.9375 255.839844 303.058594 C 255.117188 302.179688 254.441406 301.269531 253.808594 300.324219 C 253.179688 299.378906 252.59375 298.40625 252.058594 297.40625 C 251.523438 296.402344 251.039062 295.378906 250.601562 294.328125 C 250.167969 293.277344 249.785156 292.210938 249.453125 291.125 C 249.125 290.035156 248.847656 288.9375 248.625 287.820312 C 248.40625 286.707031 248.238281 285.585938 248.125 284.453125 C 248.015625 283.324219 247.960938 282.191406 247.960938 281.054688 C 247.960938 279.917969 248.015625 278.785156 248.125 277.65625 C 248.238281 276.523438 248.40625 275.402344 248.625 274.289062 C 248.847656 273.171875 249.125 272.074219 249.453125 270.984375 C 249.785156 269.898438 250.167969 268.828125 250.601562 267.78125 C 251.039062 266.730469 251.523438 265.707031 252.058594 264.703125 C 252.59375 263.703125 253.179688 262.726562 253.808594 261.785156 C 254.441406 260.839844 255.117188 259.925781 255.839844 259.050781 C 256.5625 258.171875 257.324219 257.332031 258.128906 256.527344 C 258.929688 255.722656 259.773438 254.960938 260.652344 254.242188 C 261.53125 253.519531 262.441406 252.84375 263.386719 252.214844 C 264.332031 251.582031 265.308594 251 266.308594 250.464844 C 267.3125 249.929688 268.339844 249.441406 269.390625 249.007812 C 270.441406 248.574219 271.507812 248.191406 272.597656 247.863281 C 273.683594 247.53125 274.785156 247.257812 275.902344 247.035156 C 277.015625 246.8125 278.140625 246.644531 279.269531 246.535156 C 280.402344 246.421875 281.535156 246.367188 282.671875 246.367188 C 283.8125 246.367188 284.945312 246.421875 286.078125 246.535156 C 287.207031 246.644531 288.332031 246.8125 289.445312 247.035156 C 290.5625 247.257812 291.664062 247.53125 292.75 247.863281 C 293.839844 248.191406 294.90625 248.574219 295.957031 249.007812 C 297.007812 249.441406 298.035156 249.929688 299.039062 250.464844 C 300.039062 251 301.015625 251.582031 301.960938 252.214844 C 302.90625 252.84375 303.816406 253.519531 304.695312 254.242188 C 305.574219 254.960938 306.417969 255.722656 307.21875 256.527344 C 308.023438 257.332031 308.785156 258.171875 309.507812 259.050781 C 310.230469 259.925781 310.90625 260.839844 311.539062 261.785156 C 312.167969 262.726562 312.753906 263.703125 313.289062 264.703125 C 313.824219 265.707031 314.308594 266.730469 314.746094 267.78125 C 315.179688 268.828125 315.5625 269.898438 315.894531 270.984375 C 316.222656 272.074219 316.5 273.171875 316.722656 274.289062 C 316.941406 275.402344 317.109375 276.523438 317.222656 277.65625 C 317.332031 278.785156 317.386719 279.917969 317.386719 281.054688 Z M 317.386719 281.054688 " fill-opacity="1" fill-rule="nonzero"/><g clip-path="url(#b499005737)"><path fill="#f9dae0" d="M 460.511719 242.457031 C 460.511719 243.59375 460.457031 244.726562 460.34375 245.855469 C 460.234375 246.988281 460.066406 248.109375 459.84375 249.222656 C 459.625 250.339844 459.347656 251.4375 459.015625 252.527344 C 458.6875 253.613281 458.304688 254.683594 457.871094 255.730469 C 457.433594 256.78125 456.949219 257.808594 456.414062 258.808594 C 455.878906 259.808594 455.292969 260.785156 454.660156 261.726562 C 454.03125 262.671875 453.355469 263.585938 452.632812 264.460938 C 451.910156 265.339844 451.148438 266.179688 450.34375 266.984375 C 449.539062 267.789062 448.699219 268.550781 447.820312 269.269531 C 446.941406 269.992188 446.03125 270.667969 445.085938 271.296875 C 444.140625 271.929688 443.164062 272.511719 442.164062 273.046875 C 441.160156 273.582031 440.132812 274.070312 439.082031 274.503906 C 438.03125 274.9375 436.964844 275.320312 435.875 275.652344 C 434.789062 275.980469 433.6875 276.257812 432.570312 276.476562 C 431.457031 276.699219 430.332031 276.867188 429.199219 276.976562 C 428.070312 277.089844 426.933594 277.144531 425.796875 277.144531 C 424.660156 277.144531 423.527344 277.089844 422.394531 276.976562 C 421.265625 276.867188 420.140625 276.699219 419.027344 276.476562 C 417.910156 276.257812 416.808594 275.980469 415.722656 275.652344 C 414.632812 275.320312 413.5625 274.9375 412.515625 274.503906 C 411.464844 274.070312 410.4375 273.582031 409.433594 273.046875 C 408.429688 272.511719 407.457031 271.929688 406.511719 271.296875 C 405.566406 270.667969 404.65625 269.992188 403.777344 269.269531 C 402.898438 268.550781 402.054688 267.789062 401.25 266.984375 C 400.449219 266.179688 399.683594 265.339844 398.964844 264.460938 C 398.242188 263.585938 397.566406 262.671875 396.933594 261.726562 C 396.304688 260.785156 395.71875 259.808594 395.183594 258.808594 C 394.648438 257.808594 394.160156 256.78125 393.726562 255.730469 C 393.292969 254.683594 392.910156 253.613281 392.578125 252.527344 C 392.25 251.4375 391.972656 250.339844 391.75 249.222656 C 391.53125 248.109375 391.363281 246.988281 391.25 245.855469 C 391.140625 244.726562 391.085938 243.59375 391.085938 242.457031 C 391.085938 241.320312 391.140625 240.1875 391.25 239.058594 C 391.363281 237.925781 391.53125 236.804688 391.75 235.691406 C 391.972656 234.578125 392.25 233.476562 392.578125 232.386719 C 392.910156 231.300781 393.292969 230.234375 393.726562 229.183594 C 394.160156 228.132812 394.648438 227.109375 395.183594 226.105469 C 395.71875 225.105469 396.304688 224.132812 396.933594 223.1875 C 397.566406 222.242188 398.242188 221.332031 398.964844 220.453125 C 399.683594 219.574219 400.449219 218.734375 401.25 217.929688 C 402.054688 217.128906 402.898438 216.363281 403.777344 215.644531 C 404.65625 214.921875 405.566406 214.246094 406.511719 213.617188 C 407.457031 212.984375 408.429688 212.402344 409.433594 211.867188 C 410.4375 211.332031 411.464844 210.847656 412.515625 210.410156 C 413.5625 209.976562 414.632812 209.59375 415.722656 209.265625 C 416.808594 208.933594 417.910156 208.660156 419.027344 208.4375 C 420.140625 208.214844 421.265625 208.050781 422.394531 207.9375 C 423.527344 207.828125 424.660156 207.769531 425.796875 207.769531 C 426.933594 207.769531 428.070312 207.828125 429.199219 207.9375 C 430.332031 208.050781 431.457031 208.214844 432.570312 208.4375 C 433.6875 208.660156 434.789062 208.933594 435.875 209.265625 C 436.964844 209.59375 438.03125 209.976562 439.082031 210.410156 C 440.132812 210.847656 441.160156 211.332031 442.164062 211.867188 C 443.164062 212.402344 444.140625 212.984375 445.085938 213.617188 C 446.03125 214.246094 446.941406 214.921875 447.820312 215.644531 C 448.699219 216.363281 449.539062 217.128906 450.34375 217.929688 C 451.148438 218.734375 451.910156 219.574219 452.632812 220.453125 C 453.355469 221.332031 454.03125 222.242188 454.660156 223.1875 C 455.292969 224.132812 455.878906 225.105469 456.414062 226.105469 C 456.949219 227.109375 457.433594 228.132812 457.871094 229.183594 C 458.304688 230.234375 458.6875 231.300781 459.015625 232.386719 C 459.347656 233.476562 459.625 234.578125 459.84375 235.691406 C 460.066406 236.804688 460.234375 237.925781 460.34375 239.058594 C 460.457031 240.1875 460.511719 241.320312 460.511719 242.457031 Z M 460.511719 242.457031 " fill-opacity="1" fill-rule="nonzero"/></g><path fill="#ffffff" d="M 282.671875 306.480469 C 268.640625 306.480469 257.226562 295.074219 257.226562 281.054688 C 257.226562 267.035156 268.640625 255.628906 282.671875 255.628906 C 296.703125 255.628906 308.117188 267.035156 308.117188 281.054688 C 308.117188 295.074219 296.703125 306.480469 282.671875 306.480469 Z M 282.671875 258.972656 C 270.488281 258.972656 260.574219 268.878906 260.574219 281.054688 C 260.574219 293.230469 270.488281 303.136719 282.671875 303.136719 C 294.859375 303.136719 304.773438 293.230469 304.773438 281.054688 C 304.773438 268.878906 294.859375 258.972656 282.671875 258.972656 Z M 282.671875 258.972656 " fill-opacity="1" fill-rule="nonzero"/><path fill="#ffffff" d="M 282.671875 306.480469 C 274.425781 306.480469 267.964844 295.3125 267.964844 281.054688 C 267.964844 266.796875 274.425781 255.628906 282.671875 255.628906 C 290.921875 255.628906 297.382812 266.796875 297.382812 281.054688 C 297.382812 295.3125 290.921875 306.480469 282.671875 306.480469 Z M 282.671875 258.972656 C 276.515625 258.972656 271.3125 269.085938 271.3125 281.054688 C 271.3125 293.023438 276.515625 303.136719 282.671875 303.136719 C 288.832031 303.136719 294.035156 293.023438 294.035156 281.054688 C 294.035156 269.085938 288.832031 258.972656 282.671875 258.972656 Z M 282.671875 258.972656 " fill-opacity="1" fill-rule="nonzero"/><path fill="#ffffff" d="M 281 257.300781 L 284.347656 257.300781 L 284.347656 304.808594 L 281 304.808594 Z M 281 257.300781 " fill-opacity="1" fill-rule="nonzero"/><path fill="#ffffff" d="M 259.585938 273.171875 L 305.621094 273.171875 L 305.621094 276.515625 L 259.585938 276.515625 Z M 259.585938 273.171875 " fill-opacity="1" fill-rule="nonzero"/><path fill="#ffffff" d="M 259.585938 285.59375 L 305.621094 285.59375 L 305.621094 288.9375 L 259.585938 288.9375 Z M 259.585938 285.59375 " fill-opacity="1" fill-rule="nonzero"/><path fill="#ffffff" d="M 432.511719 233.152344 C 432.511719 233.59375 432.46875 234.027344 432.382812 234.460938 C 432.296875 234.894531 432.167969 235.3125 432 235.71875 C 431.832031 236.125 431.625 236.511719 431.378906 236.878906 C 431.132812 237.246094 430.855469 237.582031 430.542969 237.894531 C 430.234375 238.207031 429.894531 238.484375 429.527344 238.730469 C 429.160156 238.972656 428.773438 239.179688 428.367188 239.347656 C 427.960938 239.515625 427.539062 239.644531 427.109375 239.730469 C 426.675781 239.816406 426.238281 239.859375 425.796875 239.859375 C 425.359375 239.859375 424.921875 239.816406 424.488281 239.730469 C 424.054688 239.644531 423.636719 239.515625 423.230469 239.347656 C 422.824219 239.179688 422.433594 238.972656 422.070312 238.730469 C 421.703125 238.484375 421.363281 238.207031 421.050781 237.894531 C 420.738281 237.582031 420.460938 237.246094 420.21875 236.878906 C 419.972656 236.511719 419.765625 236.125 419.597656 235.71875 C 419.429688 235.3125 419.300781 234.894531 419.214844 234.460938 C 419.128906 234.027344 419.085938 233.59375 419.085938 233.152344 C 419.085938 232.710938 419.128906 232.277344 419.214844 231.84375 C 419.300781 231.410156 419.429688 230.992188 419.597656 230.585938 C 419.765625 230.179688 419.972656 229.792969 420.21875 229.425781 C 420.460938 229.058594 420.738281 228.722656 421.050781 228.410156 C 421.363281 228.097656 421.703125 227.820312 422.070312 227.574219 C 422.433594 227.332031 422.824219 227.125 423.230469 226.957031 C 423.636719 226.785156 424.054688 226.660156 424.488281 226.574219 C 424.921875 226.488281 425.359375 226.445312 425.796875 226.445312 C 426.238281 226.445312 426.675781 226.488281 427.109375 226.574219 C 427.539062 226.660156 427.960938 226.785156 428.367188 226.957031 C 428.773438 227.125 429.160156 227.332031 429.527344 227.574219 C 429.894531 227.820312 430.234375 228.097656 430.542969 228.410156 C 430.855469 228.722656 431.132812 229.058594 431.378906 229.425781 C 431.625 229.792969 431.832031 230.179688 432 230.585938 C 432.167969 230.992188 432.296875 231.410156 432.382812 231.84375 C 432.46875 232.277344 432.511719 232.710938 432.511719 233.152344 Z M 432.511719 233.152344 " fill-opacity="1" fill-rule="nonzero"/><path fill="#ffffff" d="M 441.585938 258.46875 L 410.007812 258.46875 C 410.4375 250.097656 417.339844 243.417969 425.796875 243.417969 C 434.28125 243.417969 441.183594 250.097656 441.585938 258.46875 Z M 441.585938 258.46875 " fill-opacity="1" fill-rule="nonzero"/><path fill="#dcdffe" d="M 716.488281 340.902344 L 747.277344 263.113281 L 748.835938 263.726562 L 718.046875 341.515625 Z M 716.488281 340.902344 " fill-opacity="1" fill-rule="nonzero"/><g clip-path="url(#8b1549971b)"><path fill="#f9dae0" d="M 786.84375 256.480469 C 786.84375 257.617188 786.789062 258.75 786.675781 259.878906 C 786.5625 261.011719 786.398438 262.132812 786.175781 263.246094 C 785.953125 264.363281 785.679688 265.460938 785.347656 266.550781 C 785.019531 267.636719 784.636719 268.703125 784.199219 269.753906 C 783.765625 270.804688 783.28125 271.828125 782.742188 272.832031 C 782.207031 273.832031 781.625 274.808594 780.992188 275.75 C 780.359375 276.695312 779.683594 277.605469 778.964844 278.484375 C 778.242188 279.363281 777.480469 280.203125 776.675781 281.007812 C 775.871094 281.8125 775.03125 282.574219 774.152344 283.292969 C 773.273438 284.015625 772.359375 284.691406 771.414062 285.320312 C 770.46875 285.953125 769.496094 286.535156 768.492188 287.070312 C 767.492188 287.605469 766.464844 288.09375 765.414062 288.527344 C 764.363281 288.960938 763.292969 289.34375 762.207031 289.671875 C 761.117188 290.003906 760.015625 290.277344 758.902344 290.5 C 757.785156 290.722656 756.664062 290.890625 755.53125 291 C 754.398438 291.113281 753.265625 291.167969 752.128906 291.167969 C 750.992188 291.167969 749.859375 291.113281 748.726562 291 C 747.59375 290.890625 746.472656 290.722656 745.355469 290.5 C 744.242188 290.277344 743.140625 290.003906 742.050781 289.671875 C 740.964844 289.34375 739.894531 288.960938 738.84375 288.527344 C 737.792969 288.09375 736.765625 287.605469 735.765625 287.070312 C 734.761719 286.535156 733.789062 285.953125 732.84375 285.320312 C 731.898438 284.691406 730.984375 284.015625 730.105469 283.292969 C 729.226562 282.574219 728.386719 281.8125 727.582031 281.007812 C 726.777344 280.203125 726.015625 279.363281 725.292969 278.484375 C 724.574219 277.605469 723.898438 276.695312 723.265625 275.75 C 722.632812 274.808594 722.050781 273.832031 721.515625 272.832031 C 720.976562 271.828125 720.492188 270.804688 720.058594 269.753906 C 719.621094 268.703125 719.238281 267.636719 718.910156 266.550781 C 718.578125 265.460938 718.304688 264.363281 718.082031 263.246094 C 717.859375 262.132812 717.695312 261.011719 717.582031 259.878906 C 717.46875 258.75 717.414062 257.617188 717.414062 256.480469 C 717.414062 255.34375 717.46875 254.210938 717.582031 253.082031 C 717.695312 251.949219 717.859375 250.828125 718.082031 249.714844 C 718.304688 248.597656 718.578125 247.5 718.910156 246.410156 C 719.238281 245.324219 719.621094 244.257812 720.058594 243.207031 C 720.492188 242.15625 720.976562 241.132812 721.515625 240.128906 C 722.050781 239.128906 722.632812 238.15625 723.265625 237.210938 C 723.898438 236.265625 724.574219 235.355469 725.292969 234.476562 C 726.015625 233.597656 726.777344 232.757812 727.582031 231.953125 C 728.386719 231.148438 729.226562 230.386719 730.105469 229.667969 C 730.984375 228.945312 731.898438 228.269531 732.84375 227.640625 C 733.789062 227.007812 734.761719 226.425781 735.765625 225.890625 C 736.765625 225.355469 737.792969 224.871094 738.84375 224.433594 C 739.894531 224 740.964844 223.617188 742.050781 223.289062 C 743.140625 222.957031 744.242188 222.683594 745.355469 222.460938 C 746.472656 222.238281 747.59375 222.074219 748.726562 221.960938 C 749.859375 221.851562 750.992188 221.792969 752.128906 221.792969 C 753.265625 221.792969 754.398438 221.851562 755.53125 221.960938 C 756.664062 222.074219 757.785156 222.238281 758.902344 222.460938 C 760.015625 222.683594 761.117188 222.957031 762.207031 223.289062 C 763.292969 223.617188 764.363281 224 765.414062 224.433594 C 766.464844 224.871094 767.492188 225.355469 768.492188 225.890625 C 769.496094 226.425781 770.46875 227.007812 771.414062 227.640625 C 772.359375 228.269531 773.273438 228.945312 774.152344 229.667969 C 775.03125 230.386719 775.871094 231.148438 776.675781 231.953125 C 777.480469 232.757812 778.242188 233.597656 778.964844 234.476562 C 779.683594 235.355469 780.359375 236.265625 780.992188 237.210938 C 781.625 238.15625 782.207031 239.128906 782.742188 240.128906 C 783.28125 241.132812 783.765625 242.15625 784.199219 243.207031 C 784.636719 244.257812 785.019531 245.324219 785.347656 246.410156 C 785.679688 247.5 785.953125 248.597656 786.175781 249.714844 C 786.398438 250.828125 786.5625 251.949219 786.675781 253.082031 C 786.789062 254.210938 786.84375 255.34375 786.84375 256.480469 Z M 786.84375 256.480469 " fill-opacity="1" fill-rule="nonzero"/></g><path fill="#ffffff" d="M 776.582031 256.953125 L 775.898438 250.722656 L 770.773438 249.070312 C 770.15625 247.515625 769.355469 246.066406 768.394531 244.742188 L 769.75 239.535156 L 764.859375 235.613281 L 760.066406 238.066406 C 758.5625 237.417969 756.972656 236.949219 755.324219 236.6875 L 752.597656 232.046875 L 746.363281 232.730469 L 744.710938 237.851562 C 743.15625 238.46875 741.707031 239.269531 740.378906 240.226562 L 735.171875 238.871094 L 731.246094 243.761719 L 733.699219 248.550781 C 733.050781 250.050781 732.582031 251.640625 732.316406 253.289062 L 727.675781 256.011719 L 728.359375 262.242188 L 733.484375 263.894531 C 734.101562 265.445312 734.902344 266.894531 735.863281 268.21875 L 734.503906 273.425781 L 739.398438 277.347656 L 744.191406 274.894531 C 745.691406 275.542969 747.28125 276.011719 748.933594 276.277344 L 751.660156 280.914062 L 757.894531 280.230469 L 759.546875 275.113281 C 761.101562 274.496094 762.550781 273.695312 763.875 272.734375 L 769.085938 274.089844 L 773.011719 269.203125 L 770.558594 264.414062 C 771.207031 262.914062 771.675781 261.324219 771.941406 259.671875 Z M 776.582031 256.953125 " fill-opacity="1" fill-rule="nonzero"/><path fill="#f9dae0" d="M 763.167969 255.265625 C 763.867188 261.648438 759.265625 267.382812 752.886719 268.082031 C 746.507812 268.785156 740.765625 264.183594 740.066406 257.800781 C 739.363281 251.425781 743.96875 245.691406 750.347656 244.992188 C 756.726562 244.292969 762.464844 248.890625 763.167969 255.265625 Z M 763.167969 255.265625 " fill-opacity="1" fill-rule="nonzero"/><g clip-path="url(#478e610c4a)"><g clip-path="url(#cf456d55eb)"><path fill="#2cb9ff" d="M 174.375 558.824219 L 181.128906 558.824219 L 181.128906 565.351562 L 174.375 565.351562 Z M 174.375 558.824219 " fill-opacity="1" fill-rule="nonzero"/><path fill="#2cb9ff" d="M 174.375 558.824219 L 181.128906 558.824219 L 181.128906 565.351562 L 174.375 565.351562 Z M 174.375 558.824219 " fill-opacity="1" fill-rule="nonzero"/><path fill="#2cb9ff" d="M 174.375 558.824219 L 181.128906 558.824219 L 181.128906 565.351562 L 174.375 565.351562 Z M 174.375 558.824219 " fill-opacity="1" fill-rule="nonzero"/></g></g></svg>