<svg xmlns="http://www.w3.org/2000/svg" xmlns:xlink="http://www.w3.org/1999/xlink" width="500" zoomAndPan="magnify" viewBox="0 0 375 374.999991" height="500" preserveAspectRatio="xMidYMid meet" version="1.0"><defs><clipPath id="de4e7cecef"><path d="M 141 23.347656 L 177 23.347656 L 177 59 L 141 59 Z M 141 23.347656 " clip-rule="nonzero"/></clipPath><clipPath id="1415c38276"><path d="M 329 330 L 365.296875 330 L 365.296875 351 L 329 351 Z M 329 330 " clip-rule="nonzero"/></clipPath></defs><path fill="#0e3f96" d="M 251.597656 317.554688 L 60.871094 317.554688 C 58.984375 317.554688 57.453125 316.023438 57.453125 314.136719 L 57.453125 52.332031 C 57.453125 50.441406 58.984375 48.910156 60.871094 48.910156 L 251.597656 48.910156 C 253.484375 48.910156 255.015625 50.441406 255.015625 52.332031 L 255.015625 314.136719 C 255.015625 316.023438 253.484375 317.554688 251.597656 317.554688 Z M 251.597656 317.554688 " fill-opacity="1" fill-rule="nonzero"/><path fill="#ebf7f6" d="M 70.417969 62.5 L 243.285156 62.5 L 243.285156 304.585938 L 70.417969 304.585938 Z M 70.417969 62.5 " fill-opacity="1" fill-rule="nonzero"/><path fill="#ea9c34" d="M 118.882812 41.503906 L 195.355469 41.503906 L 195.355469 72.382812 L 118.882812 72.382812 Z M 118.882812 41.503906 " fill-opacity="1" fill-rule="nonzero"/><path fill="#faaf3b" d="M 118.882812 41.503906 L 195.355469 41.503906 L 195.355469 67.375 L 118.882812 67.375 Z M 118.882812 41.503906 " fill-opacity="1" fill-rule="nonzero"/><g clip-path="url(#de4e7cecef)"><path fill="#faaf3b" d="M 158.507812 23.363281 C 148.847656 23.363281 141.015625 31.199219 141.015625 40.863281 C 141.015625 50.527344 148.847656 58.359375 158.507812 58.359375 C 168.171875 58.359375 176.003906 50.527344 176.003906 40.863281 C 176.003906 31.199219 168.171875 23.363281 158.507812 23.363281 Z M 158.519531 47.6875 C 153.640625 47.6875 149.683594 43.730469 149.683594 38.851562 C 149.683594 33.96875 153.640625 30.015625 158.519531 30.015625 C 163.398438 30.015625 167.351562 33.96875 167.351562 38.851562 C 167.351562 43.730469 163.398438 47.6875 158.519531 47.6875 Z M 158.519531 47.6875 " fill-opacity="1" fill-rule="nonzero"/></g><path fill="#ffffff" d="M 82.007812 78.371094 L 233.363281 78.371094 L 233.363281 115.386719 L 82.007812 115.386719 Z M 82.007812 78.371094 " fill-opacity="1" fill-rule="nonzero"/><path fill="#ffffff" d="M 81.441406 118.722656 L 232.796875 118.722656 L 232.796875 155.738281 L 81.441406 155.738281 Z M 81.441406 118.722656 " fill-opacity="1" fill-rule="nonzero"/><path fill="#ffffff" d="M 81.171875 159.074219 L 232.53125 159.074219 L 232.53125 196.089844 L 81.171875 196.089844 Z M 81.171875 159.074219 " fill-opacity="1" fill-rule="nonzero"/><path fill="#ffffff" d="M 81.171875 199.425781 L 232.53125 199.425781 L 232.53125 236.441406 L 81.171875 236.441406 Z M 81.171875 199.425781 " fill-opacity="1" fill-rule="nonzero"/><path fill="#ffffff" d="M 81.171875 240.40625 L 232.53125 240.40625 L 232.53125 277.425781 L 81.171875 277.425781 Z M 81.171875 240.40625 " fill-opacity="1" fill-rule="nonzero"/><path stroke-linecap="butt" transform="matrix(0.0757883, 0, 0, 0.0758118, -7.269456, -7.321765)" fill="none" stroke-linejoin="miter" d="M 1239.575133 1183.099631 L 1600.263438 1183.099631 L 1600.263438 1543.830715 L 1239.575133 1543.830715 Z M 1239.575133 1183.099631 " stroke="#0071bb" stroke-width="4" stroke-opacity="1" stroke-miterlimit="10"/><path stroke-linecap="butt" transform="matrix(0.0757883, 0, 0, 0.0758118, -7.269456, -7.321765)" fill="none" stroke-linejoin="miter" d="M 1239.575133 1726.386097 L 1600.263438 1726.386097 L 1600.263438 2087.065655 L 1239.575133 2087.065655 Z M 1239.575133 1726.386097 " stroke="#0071bb" stroke-width="4" stroke-opacity="1" stroke-miterlimit="10"/><path stroke-linecap="butt" transform="matrix(0.0757883, 0, 0, 0.0758118, -7.269456, -7.321765)" fill="none" stroke-linejoin="miter" d="M 1239.575133 2258.646073 L 1600.263438 2258.646073 L 1600.263438 2619.325631 L 1239.575133 2619.325631 Z M 1239.575133 2258.646073 " stroke="#0071bb" stroke-width="4" stroke-opacity="1" stroke-miterlimit="10"/><path stroke-linecap="butt" transform="matrix(0.0757883, 0, 0, 0.0758118, -7.269456, -7.321765)" fill="none" stroke-linejoin="miter" d="M 1239.575133 2790.906049 L 1600.263438 2790.906049 L 1600.263438 3151.585607 L 1239.575133 3151.585607 Z M 1239.575133 2790.906049 " stroke="#0071bb" stroke-width="4" stroke-opacity="1" stroke-miterlimit="10"/><path stroke-linecap="butt" transform="matrix(0.0757883, 0, 0, 0.0758118, -7.269456, -7.321765)" fill="none" stroke-linejoin="miter" d="M 1239.575133 3331.461655 L 1600.263438 3331.461655 L 1600.263438 3692.192739 L 1239.575133 3692.192739 Z M 1239.575133 3331.461655 " stroke="#0071bb" stroke-width="4" stroke-opacity="1" stroke-miterlimit="10"/><path fill="#0071bb" d="M 122.800781 83.578125 L 119.894531 81.164062 L 101.660156 103.113281 L 94.640625 96.882812 L 92.132812 99.710938 L 102.175781 108.410156 L 102.265625 108.300781 Z M 122.800781 83.578125 " fill-opacity="1" fill-rule="nonzero"/><path fill="#0071bb" d="M 121.355469 123.820312 L 118.449219 121.40625 L 100.21875 143.355469 L 93.195312 137.125 L 90.6875 139.953125 L 100.730469 148.652344 L 100.820312 148.542969 Z M 121.355469 123.820312 " fill-opacity="1" fill-rule="nonzero"/><path fill="#0071bb" d="M 121.355469 164.503906 L 118.449219 162.089844 L 100.21875 184.039062 L 93.195312 177.8125 L 90.6875 180.640625 L 100.730469 189.335938 L 100.820312 189.226562 Z M 121.355469 164.503906 " fill-opacity="1" fill-rule="nonzero"/><path fill="#0071bb" d="M 121.355469 204.625 L 118.449219 202.207031 L 100.21875 224.15625 L 93.195312 217.929688 L 90.6875 220.757812 L 100.730469 229.453125 L 100.820312 229.347656 Z M 121.355469 204.625 " fill-opacity="1" fill-rule="nonzero"/><path fill="#0071bb" d="M 121.355469 245.976562 L 118.449219 243.5625 L 100.21875 265.511719 L 93.195312 259.28125 L 90.6875 262.109375 L 100.730469 270.808594 L 100.820312 270.699219 Z M 121.355469 245.976562 " fill-opacity="1" fill-rule="nonzero"/><path fill="#ebf7f6" d="M 126.011719 89.042969 L 224.695312 89.042969 L 224.695312 93.265625 L 126.011719 93.265625 Z M 126.011719 89.042969 " fill-opacity="1" fill-rule="nonzero"/><path fill="#ebf7f6" d="M 126.011719 96.042969 L 224.695312 96.042969 L 224.695312 100.269531 L 126.011719 100.269531 Z M 126.011719 96.042969 " fill-opacity="1" fill-rule="nonzero"/><path fill="#ebf7f6" d="M 126.011719 103.046875 L 224.695312 103.046875 L 224.695312 107.273438 L 126.011719 107.273438 Z M 126.011719 103.046875 " fill-opacity="1" fill-rule="nonzero"/><path fill="#ebf7f6" d="M 126.660156 128.113281 L 225.34375 128.113281 L 225.34375 132.339844 L 126.660156 132.339844 Z M 126.660156 128.113281 " fill-opacity="1" fill-rule="nonzero"/><path fill="#ebf7f6" d="M 126.660156 135.117188 L 225.34375 135.117188 L 225.34375 139.34375 L 126.660156 139.34375 Z M 126.660156 135.117188 " fill-opacity="1" fill-rule="nonzero"/><path fill="#ebf7f6" d="M 126.660156 142.121094 L 225.34375 142.121094 L 225.34375 146.34375 L 126.660156 146.34375 Z M 126.660156 142.121094 " fill-opacity="1" fill-rule="nonzero"/><path fill="#ebf7f6" d="M 127.308594 167.1875 L 225.992188 167.1875 L 225.992188 171.414062 L 127.308594 171.414062 Z M 127.308594 167.1875 " fill-opacity="1" fill-rule="nonzero"/><path fill="#ebf7f6" d="M 127.308594 174.191406 L 225.992188 174.191406 L 225.992188 178.417969 L 127.308594 178.417969 Z M 127.308594 174.191406 " fill-opacity="1" fill-rule="nonzero"/><path fill="#ebf7f6" d="M 127.308594 181.195312 L 225.992188 181.195312 L 225.992188 185.417969 L 127.308594 185.417969 Z M 127.308594 181.195312 " fill-opacity="1" fill-rule="nonzero"/><path fill="#ebf7f6" d="M 127.957031 206.261719 L 226.640625 206.261719 L 226.640625 210.488281 L 127.957031 210.488281 Z M 127.957031 206.261719 " fill-opacity="1" fill-rule="nonzero"/><path fill="#ebf7f6" d="M 127.957031 213.265625 L 226.640625 213.265625 L 226.640625 217.488281 L 127.957031 217.488281 Z M 127.957031 213.265625 " fill-opacity="1" fill-rule="nonzero"/><path fill="#ebf7f6" d="M 127.957031 220.269531 L 226.640625 220.269531 L 226.640625 224.492188 L 127.957031 224.492188 Z M 127.957031 220.269531 " fill-opacity="1" fill-rule="nonzero"/><path fill="#ebf7f6" d="M 128.605469 245.335938 L 227.289062 245.335938 L 227.289062 249.558594 L 128.605469 249.558594 Z M 128.605469 245.335938 " fill-opacity="1" fill-rule="nonzero"/><path fill="#ebf7f6" d="M 128.605469 252.339844 L 227.289062 252.339844 L 227.289062 256.5625 L 128.605469 256.5625 Z M 128.605469 252.339844 " fill-opacity="1" fill-rule="nonzero"/><path fill="#ebf7f6" d="M 128.605469 259.34375 L 227.289062 259.34375 L 227.289062 263.566406 L 128.605469 263.566406 Z M 128.605469 259.34375 " fill-opacity="1" fill-rule="nonzero"/><path fill="#eebe6a" d="M 185.167969 225.992188 L 240.707031 225.992188 L 240.707031 271.828125 L 185.167969 271.828125 Z M 185.167969 225.992188 " fill-opacity="1" fill-rule="nonzero"/><path fill="#eebe6a" d="M 183.691406 219.496094 L 242.167969 219.496094 L 242.167969 227.707031 L 183.691406 227.707031 Z M 183.691406 219.496094 " fill-opacity="1" fill-rule="nonzero"/><path fill="#e6e7e8" d="M 185.167969 230.6875 L 221.722656 271.828125 L 240.707031 271.828125 L 240.707031 227.707031 L 185.167969 227.707031 Z M 185.167969 230.6875 " fill-opacity="1" fill-rule="nonzero"/><path fill="#cf7f3d" d="M 189.550781 219.496094 L 195.8125 219.496094 L 195.8125 230.6875 L 189.550781 230.6875 Z M 189.550781 219.496094 " fill-opacity="1" fill-rule="nonzero"/><path fill="#cf7f3d" d="M 230.28125 219.496094 L 236.546875 219.496094 L 236.546875 230.6875 L 230.28125 230.6875 Z M 230.28125 219.496094 " fill-opacity="1" fill-rule="nonzero"/><path fill="#f1f2f2" d="M 200.402344 240.929688 L 225.472656 240.929688 L 225.472656 255.691406 L 200.402344 255.691406 Z M 200.402344 240.929688 " fill-opacity="1" fill-rule="nonzero"/><path stroke-linecap="butt" transform="matrix(0.0757883, 0, 0, 0.0758118, -7.269456, -7.321765)" fill="none" stroke-linejoin="miter" d="M 2756.08442 3320.795846 L 3051.675649 3320.795846 " stroke="#ed7425" stroke-width="0.75" stroke-opacity="1" stroke-miterlimit="10"/><path stroke-linecap="butt" transform="matrix(0.0757883, 0, 0, 0.0758118, -7.269456, -7.321765)" fill="none" stroke-linejoin="miter" d="M 2756.08442 3359.285507 L 3051.675649 3359.285507 " stroke="#ed7425" stroke-width="0.75" stroke-opacity="1" stroke-miterlimit="10"/><path stroke-linecap="butt" transform="matrix(0.0757883, 0, 0, 0.0758118, -7.269456, -7.321765)" fill="none" stroke-linejoin="miter" d="M 2757.785293 3397.826694 L 3053.324982 3397.826694 " stroke="#ed7425" stroke-width="0.75" stroke-opacity="1" stroke-miterlimit="10"/><path fill="#eebe6a" d="M 125.640625 225.992188 L 181.183594 225.992188 L 181.183594 271.828125 L 125.640625 271.828125 Z M 125.640625 225.992188 " fill-opacity="1" fill-rule="nonzero"/><path fill="#eebe6a" d="M 124.164062 219.496094 L 182.640625 219.496094 L 182.640625 227.707031 L 124.164062 227.707031 Z M 124.164062 219.496094 " fill-opacity="1" fill-rule="nonzero"/><path fill="#e6e7e8" d="M 125.640625 230.6875 L 162.199219 271.828125 L 181.183594 271.828125 L 181.183594 227.707031 L 125.640625 227.707031 Z M 125.640625 230.6875 " fill-opacity="1" fill-rule="nonzero"/><path fill="#cf7f3d" d="M 130.023438 219.496094 L 136.289062 219.496094 L 136.289062 230.6875 L 130.023438 230.6875 Z M 130.023438 219.496094 " fill-opacity="1" fill-rule="nonzero"/><path fill="#cf7f3d" d="M 170.753906 219.496094 L 177.023438 219.496094 L 177.023438 230.6875 L 170.753906 230.6875 Z M 170.753906 219.496094 " fill-opacity="1" fill-rule="nonzero"/><path fill="#f1f2f2" d="M 140.878906 240.929688 L 165.949219 240.929688 L 165.949219 255.691406 L 140.878906 255.691406 Z M 140.878906 240.929688 " fill-opacity="1" fill-rule="nonzero"/><path stroke-linecap="butt" transform="matrix(0.0757883, 0, 0, 0.0758118, -7.269456, -7.321765)" fill="none" stroke-linejoin="miter" d="M 1970.69311 3320.795846 L 2266.232798 3320.795846 " stroke="#ed7425" stroke-width="0.75" stroke-opacity="1" stroke-miterlimit="10"/><path stroke-linecap="butt" transform="matrix(0.0757883, 0, 0, 0.0758118, -7.269456, -7.321765)" fill="none" stroke-linejoin="miter" d="M 1970.69311 3359.285507 L 2266.232798 3359.285507 " stroke="#ed7425" stroke-width="0.75" stroke-opacity="1" stroke-miterlimit="10"/><path stroke-linecap="butt" transform="matrix(0.0757883, 0, 0, 0.0758118, -7.269456, -7.321765)" fill="none" stroke-linejoin="miter" d="M 1972.342442 3397.826694 L 2267.933672 3397.826694 " stroke="#ed7425" stroke-width="0.75" stroke-opacity="1" stroke-miterlimit="10"/><path fill="#eebe6a" d="M 245.648438 226.035156 L 301.191406 226.035156 L 301.191406 271.871094 L 245.648438 271.871094 Z M 245.648438 226.035156 " fill-opacity="1" fill-rule="nonzero"/><path fill="#eebe6a" d="M 244.175781 219.539062 L 302.652344 219.539062 L 302.652344 227.75 L 244.175781 227.75 Z M 244.175781 219.539062 " fill-opacity="1" fill-rule="nonzero"/><path fill="#e6e7e8" d="M 245.648438 230.734375 L 282.207031 271.871094 L 301.191406 271.871094 L 301.191406 227.75 L 245.648438 227.75 Z M 245.648438 230.734375 " fill-opacity="1" fill-rule="nonzero"/><path fill="#cf7f3d" d="M 250.03125 219.539062 L 256.296875 219.539062 L 256.296875 230.734375 L 250.03125 230.734375 Z M 250.03125 219.539062 " fill-opacity="1" fill-rule="nonzero"/><path fill="#cf7f3d" d="M 290.765625 219.539062 L 297.03125 219.539062 L 297.03125 230.734375 L 290.765625 230.734375 Z M 290.765625 219.539062 " fill-opacity="1" fill-rule="nonzero"/><path fill="#f1f2f2" d="M 260.886719 240.972656 L 285.957031 240.972656 L 285.957031 255.734375 L 260.886719 255.734375 Z M 260.886719 240.972656 " fill-opacity="1" fill-rule="nonzero"/><path stroke-linecap="butt" transform="matrix(0.0757883, 0, 0, 0.0758118, -7.269456, -7.321765)" fill="none" stroke-linejoin="miter" d="M 3554.154969 3321.362628 L 3849.694658 3321.362628 " stroke="#ed7425" stroke-width="0.75" stroke-opacity="1" stroke-miterlimit="10"/><path stroke-linecap="butt" transform="matrix(0.0757883, 0, 0, 0.0758118, -7.269456, -7.321765)" fill="none" stroke-linejoin="miter" d="M 3554.154969 3359.852289 L 3849.694658 3359.852289 " stroke="#ed7425" stroke-width="0.75" stroke-opacity="1" stroke-miterlimit="10"/><path stroke-linecap="butt" transform="matrix(0.0757883, 0, 0, 0.0758118, -7.269456, -7.321765)" fill="none" stroke-linejoin="miter" d="M 3555.855843 3398.393476 L 3851.395531 3398.393476 " stroke="#ed7425" stroke-width="0.75" stroke-opacity="1" stroke-miterlimit="10"/><path fill="#eebe6a" d="M 185.34375 279.332031 L 240.882812 279.332031 L 240.882812 325.167969 L 185.34375 325.167969 Z M 185.34375 279.332031 " fill-opacity="1" fill-rule="nonzero"/><path fill="#eebe6a" d="M 183.863281 272.835938 L 242.339844 272.835938 L 242.339844 281.046875 L 183.863281 281.046875 Z M 183.863281 272.835938 " fill-opacity="1" fill-rule="nonzero"/><path fill="#e6e7e8" d="M 185.34375 284.03125 L 221.898438 325.167969 L 240.882812 325.167969 L 240.882812 281.046875 L 185.34375 281.046875 Z M 185.34375 284.03125 " fill-opacity="1" fill-rule="nonzero"/><path fill="#cf7f3d" d="M 189.722656 272.835938 L 195.988281 272.835938 L 195.988281 284.03125 L 189.722656 284.03125 Z M 189.722656 272.835938 " fill-opacity="1" fill-rule="nonzero"/><path fill="#cf7f3d" d="M 230.457031 272.835938 L 236.722656 272.835938 L 236.722656 284.03125 L 230.457031 284.03125 Z M 230.457031 272.835938 " fill-opacity="1" fill-rule="nonzero"/><path fill="#f1f2f2" d="M 200.578125 294.269531 L 225.648438 294.269531 L 225.648438 309.03125 L 200.578125 309.03125 Z M 200.578125 294.269531 " fill-opacity="1" fill-rule="nonzero"/><path stroke-linecap="butt" transform="matrix(0.0757883, 0, 0, 0.0758118, -7.269456, -7.321765)" fill="none" stroke-linejoin="miter" d="M 2758.403793 4024.378612 L 3053.995023 4024.378612 " stroke="#ed7425" stroke-width="0.75" stroke-opacity="1" stroke-miterlimit="10"/><path stroke-linecap="butt" transform="matrix(0.0757883, 0, 0, 0.0758118, -7.269456, -7.321765)" fill="none" stroke-linejoin="miter" d="M 2758.403793 4062.868273 L 3053.995023 4062.868273 " stroke="#ed7425" stroke-width="0.75" stroke-opacity="1" stroke-miterlimit="10"/><path stroke-linecap="butt" transform="matrix(0.0757883, 0, 0, 0.0758118, -7.269456, -7.321765)" fill="none" stroke-linejoin="miter" d="M 2760.104666 4101.40946 L 3055.644355 4101.40946 " stroke="#ed7425" stroke-width="0.75" stroke-opacity="1" stroke-miterlimit="10"/><path fill="#eebe6a" d="M 125.816406 279.332031 L 181.359375 279.332031 L 181.359375 325.167969 L 125.816406 325.167969 Z M 125.816406 279.332031 " fill-opacity="1" fill-rule="nonzero"/><path fill="#eebe6a" d="M 124.339844 272.835938 L 182.816406 272.835938 L 182.816406 281.046875 L 124.339844 281.046875 Z M 124.339844 272.835938 " fill-opacity="1" fill-rule="nonzero"/><path fill="#e6e7e8" d="M 125.816406 284.03125 L 162.371094 325.167969 L 181.355469 325.167969 L 181.355469 281.046875 L 125.816406 281.046875 Z M 125.816406 284.03125 " fill-opacity="1" fill-rule="nonzero"/><path fill="#cf7f3d" d="M 130.199219 272.835938 L 136.460938 272.835938 L 136.460938 284.03125 L 130.199219 284.03125 Z M 130.199219 272.835938 " fill-opacity="1" fill-rule="nonzero"/><path fill="#cf7f3d" d="M 170.929688 272.835938 L 177.195312 272.835938 L 177.195312 284.03125 L 170.929688 284.03125 Z M 170.929688 272.835938 " fill-opacity="1" fill-rule="nonzero"/><path fill="#f1f2f2" d="M 141.050781 294.269531 L 166.121094 294.269531 L 166.121094 309.03125 L 141.050781 309.03125 Z M 141.050781 294.269531 " fill-opacity="1" fill-rule="nonzero"/><path stroke-linecap="butt" transform="matrix(0.0757883, 0, 0, 0.0758118, -7.269456, -7.321765)" fill="none" stroke-linejoin="miter" d="M 1973.012483 4024.378612 L 2268.552171 4024.378612 " stroke="#ed7425" stroke-width="0.75" stroke-opacity="1" stroke-miterlimit="10"/><path stroke-linecap="butt" transform="matrix(0.0757883, 0, 0, 0.0758118, -7.269456, -7.321765)" fill="none" stroke-linejoin="miter" d="M 1973.012483 4062.868273 L 2268.552171 4062.868273 " stroke="#ed7425" stroke-width="0.75" stroke-opacity="1" stroke-miterlimit="10"/><path stroke-linecap="butt" transform="matrix(0.0757883, 0, 0, 0.0758118, -7.269456, -7.321765)" fill="none" stroke-linejoin="miter" d="M 1974.661815 4101.40946 L 2270.253045 4101.40946 " stroke="#ed7425" stroke-width="0.75" stroke-opacity="1" stroke-miterlimit="10"/><path fill="#eebe6a" d="M 245.824219 279.375 L 301.367188 279.375 L 301.367188 325.210938 L 245.824219 325.210938 Z M 245.824219 279.375 " fill-opacity="1" fill-rule="nonzero"/><path fill="#eebe6a" d="M 244.347656 272.878906 L 302.824219 272.878906 L 302.824219 281.089844 L 244.347656 281.089844 Z M 244.347656 272.878906 " fill-opacity="1" fill-rule="nonzero"/><path fill="#e6e7e8" d="M 245.824219 284.074219 L 282.382812 325.210938 L 301.367188 325.210938 L 301.367188 281.089844 L 245.824219 281.089844 Z M 245.824219 284.074219 " fill-opacity="1" fill-rule="nonzero"/><path fill="#cf7f3d" d="M 250.207031 272.878906 L 256.46875 272.878906 L 256.46875 284.074219 L 250.207031 284.074219 Z M 250.207031 272.878906 " fill-opacity="1" fill-rule="nonzero"/><path fill="#cf7f3d" d="M 290.9375 272.878906 L 297.207031 272.878906 L 297.207031 284.074219 L 290.9375 284.074219 Z M 290.9375 272.878906 " fill-opacity="1" fill-rule="nonzero"/><path fill="#f1f2f2" d="M 261.058594 294.3125 L 286.128906 294.3125 L 286.128906 309.078125 L 261.058594 309.078125 Z M 261.058594 294.3125 " fill-opacity="1" fill-rule="nonzero"/><path stroke-linecap="butt" transform="matrix(0.0757883, 0, 0, 0.0758118, -7.269456, -7.321765)" fill="none" stroke-linejoin="miter" d="M 3556.474343 4024.945394 L 3852.014031 4024.945394 " stroke="#ed7425" stroke-width="0.75" stroke-opacity="1" stroke-miterlimit="10"/><path stroke-linecap="butt" transform="matrix(0.0757883, 0, 0, 0.0758118, -7.269456, -7.321765)" fill="none" stroke-linejoin="miter" d="M 3556.474343 4063.435055 L 3852.014031 4063.435055 " stroke="#ed7425" stroke-width="0.75" stroke-opacity="1" stroke-miterlimit="10"/><path stroke-linecap="butt" transform="matrix(0.0757883, 0, 0, 0.0758118, -7.269456, -7.321765)" fill="none" stroke-linejoin="miter" d="M 3558.123675 4101.976242 L 3853.714905 4101.976242 " stroke="#ed7425" stroke-width="0.75" stroke-opacity="1" stroke-miterlimit="10"/><path fill="#eebe6a" d="M 171.191406 173.464844 L 226.734375 173.464844 L 226.734375 219.300781 L 171.191406 219.300781 Z M 171.191406 173.464844 " fill-opacity="1" fill-rule="nonzero"/><path fill="#eebe6a" d="M 169.714844 166.96875 L 228.191406 166.96875 L 228.191406 175.179688 L 169.714844 175.179688 Z M 169.714844 166.96875 " fill-opacity="1" fill-rule="nonzero"/><path fill="#e6e7e8" d="M 171.191406 178.160156 L 207.75 219.300781 L 226.734375 219.300781 L 226.734375 175.179688 L 171.191406 175.179688 Z M 171.191406 178.160156 " fill-opacity="1" fill-rule="nonzero"/><path fill="#cf7f3d" d="M 175.574219 166.96875 L 181.839844 166.96875 L 181.839844 178.160156 L 175.574219 178.160156 Z M 175.574219 166.96875 " fill-opacity="1" fill-rule="nonzero"/><path fill="#cf7f3d" d="M 216.304688 166.96875 L 222.574219 166.96875 L 222.574219 178.160156 L 216.304688 178.160156 Z M 216.304688 166.96875 " fill-opacity="1" fill-rule="nonzero"/><path fill="#f1f2f2" d="M 186.429688 188.402344 L 211.496094 188.402344 L 211.496094 203.164062 L 186.429688 203.164062 Z M 186.429688 188.402344 " fill-opacity="1" fill-rule="nonzero"/><path stroke-linecap="butt" transform="matrix(0.0757883, 0, 0, 0.0758118, -7.269456, -7.321765)" fill="none" stroke-linejoin="miter" d="M 2571.72002 2627.930415 L 2867.259709 2627.930415 " stroke="#ed7425" stroke-width="0.75" stroke-opacity="1" stroke-miterlimit="10"/><path stroke-linecap="butt" transform="matrix(0.0757883, 0, 0, 0.0758118, -7.269456, -7.321765)" fill="none" stroke-linejoin="miter" d="M 2571.72002 2666.420076 L 2867.259709 2666.420076 " stroke="#ed7425" stroke-width="0.75" stroke-opacity="1" stroke-miterlimit="10"/><path stroke-linecap="butt" transform="matrix(0.0757883, 0, 0, 0.0758118, -7.269456, -7.321765)" fill="none" stroke-linejoin="miter" d="M 2573.369352 2704.961263 L 2868.960582 2704.961263 " stroke="#ed7425" stroke-width="0.75" stroke-opacity="1" stroke-miterlimit="10"/><path fill="#eebe6a" d="M 231.757812 173.464844 L 287.296875 173.464844 L 287.296875 219.300781 L 231.757812 219.300781 Z M 231.757812 173.464844 " fill-opacity="1" fill-rule="nonzero"/><path fill="#eebe6a" d="M 230.28125 166.96875 L 288.757812 166.96875 L 288.757812 175.179688 L 230.28125 175.179688 Z M 230.28125 166.96875 " fill-opacity="1" fill-rule="nonzero"/><path fill="#e6e7e8" d="M 231.757812 178.160156 L 268.3125 219.300781 L 287.296875 219.300781 L 287.296875 175.179688 L 231.757812 175.179688 Z M 231.757812 178.160156 " fill-opacity="1" fill-rule="nonzero"/><path fill="#cf7f3d" d="M 236.140625 166.96875 L 242.402344 166.96875 L 242.402344 178.160156 L 236.140625 178.160156 Z M 236.140625 166.96875 " fill-opacity="1" fill-rule="nonzero"/><path fill="#cf7f3d" d="M 276.871094 166.96875 L 283.136719 166.96875 L 283.136719 178.160156 L 276.871094 178.160156 Z M 276.871094 166.96875 " fill-opacity="1" fill-rule="nonzero"/><path fill="#f1f2f2" d="M 246.992188 188.402344 L 272.0625 188.402344 L 272.0625 203.164062 L 246.992188 203.164062 Z M 246.992188 188.402344 " fill-opacity="1" fill-rule="nonzero"/><path stroke-linecap="butt" transform="matrix(0.0757883, 0, 0, 0.0758118, -7.269456, -7.321765)" fill="none" stroke-linejoin="miter" d="M 3370.821403 2627.930415 L 3666.412633 2627.930415 " stroke="#ed7425" stroke-width="0.75" stroke-opacity="1" stroke-miterlimit="10"/><path stroke-linecap="butt" transform="matrix(0.0757883, 0, 0, 0.0758118, -7.269456, -7.321765)" fill="none" stroke-linejoin="miter" d="M 3370.821403 2666.420076 L 3666.412633 2666.420076 " stroke="#ed7425" stroke-width="0.75" stroke-opacity="1" stroke-miterlimit="10"/><path stroke-linecap="butt" transform="matrix(0.0757883, 0, 0, 0.0758118, -7.269456, -7.321765)" fill="none" stroke-linejoin="miter" d="M 3372.522277 2704.961263 L 3668.061965 2704.961263 " stroke="#ed7425" stroke-width="0.75" stroke-opacity="1" stroke-miterlimit="10"/><path fill="#c0272d" d="M 276.625 339.960938 C 274.921875 340.160156 266.414062 339.660156 267.914062 342.664062 C 269.417969 345.667969 277.824219 349.871094 285.933594 348.671875 C 294.039062 347.46875 294.890625 346.769531 297.265625 346.769531 C 299.644531 346.769531 303.445312 346.070312 303.445312 346.070312 C 303.445312 346.070312 303.246094 335.65625 301.644531 335.054688 L 290.4375 336.058594 C 290.4375 336.054688 278.324219 339.761719 276.625 339.960938 Z M 276.625 339.960938 " fill-opacity="1" fill-rule="nonzero"/><g clip-path="url(#1415c38276)"><path fill="#c0272d" d="M 348.6875 333.847656 C 348.6875 333.847656 340.53125 343.863281 335.878906 345.066406 C 331.222656 346.269531 327.320312 348.539062 331.671875 350.183594 C 336.027344 351.824219 360.125 343.574219 360.949219 343.269531 C 362.050781 342.863281 365.304688 340.863281 365.304688 340.863281 L 358.699219 330.902344 Z M 348.6875 333.847656 " fill-opacity="1" fill-rule="nonzero"/></g><path fill="#dd4c1f" d="M 314.648438 225.203125 C 314.648438 225.203125 285.933594 273.179688 285.933594 273.78125 C 285.933594 274.378906 288.636719 330.546875 289.535156 330.546875 C 290.4375 330.546875 302.371094 330.546875 302.371094 330.546875 C 302.371094 330.546875 313.859375 297.289062 308.152344 280.128906 L 322.265625 268.074219 Z M 314.648438 225.203125 " fill-opacity="1" fill-rule="nonzero"/><path fill="#f05a24" d="M 313.355469 225.269531 C 313.355469 225.269531 317.160156 277.082031 318.660156 278.886719 C 320.164062 280.6875 346.886719 330.949219 346.886719 330.949219 L 357.238281 327.28125 C 357.238281 327.28125 347.789062 286.394531 344.484375 278.886719 C 341.183594 271.375 349.894531 223.398438 349.894531 223.398438 Z M 313.355469 225.269531 " fill-opacity="1" fill-rule="nonzero"/><path fill="#e24c1e" d="M 314.792969 234.621094 L 348.285156 232.832031 L 348.859375 229.359375 L 313.902344 230.988281 L 314.070312 234.621094 Z M 314.792969 234.621094 " fill-opacity="1" fill-rule="nonzero"/><path fill="#c63d18" d="M 309.984375 233.007812 L 314.070312 234.621094 L 313.859375 231.875 L 313.902344 230.988281 L 311.597656 230.304688 Z M 309.984375 233.007812 " fill-opacity="1" fill-rule="nonzero"/><path fill="#f4a67a" d="M 302.746094 121.195312 C 302.746094 121.195312 302.148438 125.601562 302.746094 127.703125 C 303.347656 129.804688 299.445312 132.207031 300.144531 133.308594 C 300.84375 134.410156 304.449219 134.109375 304.449219 134.109375 C 304.449219 134.109375 302.746094 141.921875 304.449219 144.125 C 306.148438 146.324219 313.15625 146.527344 313.957031 146.125 C 314.757812 145.726562 314.558594 154.136719 314.558594 154.136719 C 317.207031 153.492188 319.859375 152.851562 322.511719 152.207031 C 324.269531 151.785156 326.023438 151.359375 327.78125 150.933594 C 329.714844 150.464844 331.644531 149.996094 333.574219 149.53125 L 331.171875 141.519531 C 331.171875 141.519531 334.476562 135.414062 334.675781 130.605469 C 334.875 125.800781 332.472656 119.792969 332.472656 119.792969 C 325.875 118.152344 305.398438 113.398438 302.847656 118.816406 C 302.570312 119.414062 302.484375 120.183594 302.746094 121.195312 Z M 302.746094 121.195312 " fill-opacity="1" fill-rule="nonzero"/><path fill="#e59973" d="M 310.691406 124.847656 C 312.921875 126.609375 314.574219 129.199219 314.863281 132.03125 C 314.914062 132.515625 314.921875 133.007812 314.933594 133.5 C 314.9375 133.628906 314.945312 133.773438 315.035156 133.863281 C 315.105469 133.933594 315.210938 133.957031 315.308594 133.976562 C 316.398438 134.179688 317.707031 134.007812 318.308594 133.074219 C 318.5 132.78125 318.597656 132.4375 318.703125 132.101562 C 319.042969 131.027344 319.480469 129.96875 320.183594 129.085938 C 320.882812 128.207031 321.875 127.515625 322.988281 127.363281 C 322.875 126.652344 322.128906 126.253906 321.472656 125.960938 C 319.144531 124.921875 316.808594 123.90625 314.460938 122.90625 C 311.523438 121.65625 308.464844 120.402344 305.234375 120.25 C 304.660156 120.222656 301.625 120.171875 302.761719 121.363281 C 303.484375 122.125 305.464844 122.203125 306.421875 122.542969 C 307.953125 123.082031 309.414062 123.839844 310.691406 124.847656 Z M 310.691406 124.847656 " fill-opacity="1" fill-rule="nonzero"/><path fill="#42210b" d="M 311.695312 123.828125 C 312.722656 124.417969 313.761719 125.015625 314.585938 125.863281 C 316.5 127.832031 316.9375 130.765625 317.28125 133.492188 C 317.898438 133.460938 318.519531 133.433594 319.140625 133.402344 C 319.960938 132.238281 319.386719 130.570312 319.945312 129.261719 C 320.589844 127.761719 322.71875 127.269531 324.109375 128.121094 C 325.503906 128.972656 326.082031 130.824219 325.71875 132.414062 C 325.265625 134.382812 323.582031 136.238281 324.21875 138.15625 C 324.652344 139.460938 326.015625 140.191406 327.296875 140.6875 C 329.085938 141.386719 331.203125 141.867188 332.863281 140.894531 C 334.148438 140.144531 334.726562 138.960938 335.144531 138.039062 C 336.941406 134.074219 335.460938 129.710938 334.6875 127.429688 C 334.117188 125.742188 333.800781 124.820312 333.074219 123.75 C 332.207031 122.472656 329.792969 119.578125 320.574219 118.046875 C 314.355469 117.015625 305.667969 116.703125 305.359375 118.488281 C 304.949219 120.890625 310.152344 122.941406 311.695312 123.828125 Z M 311.695312 123.828125 " fill-opacity="1" fill-rule="nonzero"/><path fill="#f6921e" d="M 335.660156 125.589844 L 335.59375 125.738281 C 335.292969 126.371094 334.988281 126.9375 334.6875 127.429688 L 308.378906 120.53125 L 304.878906 119.609375 L 301.695312 118.777344 C 301.695312 117.722656 301.921875 116.636719 302.34375 115.566406 C 302.355469 115.539062 302.363281 115.515625 302.375 115.488281 L 302.378906 115.488281 C 302.441406 115.332031 302.507812 115.171875 302.582031 115.011719 C 302.675781 114.800781 302.777344 114.59375 302.890625 114.382812 C 305.882812 108.703125 314.050781 103.800781 321.765625 105.503906 C 339.539062 109.433594 338.265625 119.878906 335.660156 125.589844 Z M 335.660156 125.589844 " fill-opacity="1" fill-rule="nonzero"/><path fill="#f6921e" d="M 309.671875 120.238281 C 309.355469 120.332031 308.914062 120.433594 308.382812 120.53125 C 306.429688 120.902344 303.320312 121.273438 301.320312 121.417969 C 294.074219 121.960938 287.109375 119.652344 287.203125 118.488281 C 287.214844 118.355469 287.320312 118.234375 288.339844 117.984375 C 289.417969 117.722656 291.519531 117.320312 295.617188 116.613281 C 298.394531 116.136719 300.71875 115.753906 302.375 115.488281 L 302.378906 115.488281 C 303.746094 116.785156 306.601562 118.058594 308.523438 119.347656 C 308.96875 119.644531 309.355469 119.941406 309.671875 120.238281 Z M 309.671875 120.238281 " fill-opacity="1" fill-rule="nonzero"/><path fill="#faaf3b" d="M 315.058594 154.835938 L 311.90625 175.113281 L 310.300781 175.660156 L 304.648438 177.585938 L 298.691406 179.617188 L 291.035156 165.382812 L 306.351562 158.65625 Z M 315.058594 154.835938 " fill-opacity="1" fill-rule="nonzero"/><path fill="#f4a67a" d="M 289.835938 165.96875 L 238.640625 183.820312 C 238.640625 183.820312 221.972656 188.046875 221.972656 189.988281 C 221.972656 191.929688 234.886719 188.414062 235.785156 189.046875 C 236.6875 189.679688 234.585938 190.363281 239.839844 193.515625 C 245.09375 196.671875 248.972656 189.410156 248.972656 189.410156 L 298.210938 178.722656 L 291.035156 165.382812 Z M 289.835938 165.96875 " fill-opacity="1" fill-rule="nonzero"/><path fill="#ed9a2e" d="M 315.058594 154.835938 C 314.828125 155.738281 314.203125 156.535156 313.671875 157.328125 C 311.800781 160.148438 310.964844 163.539062 310.617188 166.902344 C 310.316406 169.8125 310.367188 172.738281 310.304688 175.660156 L 304.648438 177.585938 C 304.777344 172.019531 305.648438 166.625 306.070312 161.0625 C 306.144531 160.082031 306.171875 159.328125 306.351562 158.660156 Z M 315.058594 154.835938 " fill-opacity="1" fill-rule="nonzero"/><path fill="#f6921e" d="M 351.671875 228.9375 C 351.671875 228.9375 310.855469 235.347656 311.597656 230.304688 C 311.664062 229.863281 312.347656 221.144531 312.609375 213.09375 C 312.71875 209.625 312.753906 206.28125 312.625 203.773438 C 312.621094 203.734375 312.621094 203.699219 312.617188 203.660156 C 312.167969 195.402344 306.527344 185.570312 307.425781 171.605469 C 308.328125 157.636719 314.558594 154.132812 314.558594 154.132812 L 333.574219 149.527344 C 346.539062 153.984375 351.671875 228.9375 351.671875 228.9375 Z M 351.671875 228.9375 " fill-opacity="1" fill-rule="nonzero"/><path fill="#e07e1b" d="M 333.839844 199.023438 C 333.335938 198.964844 332.832031 198.902344 332.328125 198.84375 C 330.800781 201.558594 327.164062 207.089844 320.265625 210.566406 C 317.425781 212 314.75 212.71875 312.609375 213.097656 C 312.71875 209.625 312.753906 206.28125 312.625 203.773438 C 321.015625 201.15625 328.644531 195.226562 331.707031 187.003906 C 332.71875 184.296875 333.214844 181.429688 334.066406 178.667969 C 334.792969 176.285156 335.792969 173.957031 336.101562 171.484375 C 336.703125 166.664062 334.464844 162.648438 331.117188 159.421875 C 332.367188 159.570312 334.757812 160.035156 336.820312 161.835938 C 339.25 163.964844 339.871094 166.777344 340.210938 168.304688 C 341.464844 173.988281 339.3125 185.367188 333.839844 199.023438 Z M 333.839844 199.023438 " fill-opacity="1" fill-rule="nonzero"/><path fill="#faaf3b" d="M 319.5625 163.847656 C 317.246094 172.257812 314.933594 180.671875 312.617188 189.085938 C 318.136719 191.585938 323.652344 194.085938 329.171875 196.585938 C 332.578125 187.976562 335.984375 179.367188 339.394531 170.757812 C 339.484375 166.167969 336.84375 161.992188 332.773438 160.242188 C 328.214844 158.28125 322.722656 159.734375 319.5625 163.847656 Z M 319.5625 163.847656 " fill-opacity="1" fill-rule="nonzero"/><path fill="#1a1a1a" d="M 260.886719 166.183594 L 253.9375 179.113281 C 253.808594 179.347656 253.9375 179.636719 254.195312 179.703125 L 290.347656 189.035156 C 290.589844 189.097656 290.832031 188.925781 290.855469 188.675781 L 292.019531 176.03125 C 292.039062 175.839844 291.921875 175.664062 291.738281 175.605469 L 261.367188 165.988281 C 261.183594 165.929688 260.980469 166.011719 260.886719 166.183594 Z M 260.886719 166.183594 " fill-opacity="1" fill-rule="nonzero"/><path fill="#333333" d="M 261.121094 165.597656 L 254.175781 178.523438 C 254.046875 178.757812 254.175781 179.046875 254.433594 179.113281 L 290.582031 188.445312 C 290.824219 188.507812 291.070312 188.335938 291.089844 188.085938 L 292.257812 175.445312 C 292.277344 175.25 292.15625 175.074219 291.972656 175.015625 L 261.605469 165.398438 C 261.417969 165.339844 261.214844 165.425781 261.121094 165.597656 Z M 261.121094 165.597656 " fill-opacity="1" fill-rule="nonzero"/><path fill="#f4a67a" d="M 313.6875 189.570312 L 312.617188 191.929688 L 278.273438 183.972656 C 278.273438 183.972656 271.21875 172.105469 269.417969 173.609375 C 267.617188 175.109375 269.71875 178.566406 269.417969 179.464844 C 269.117188 180.367188 265.085938 182.078125 263.148438 181.832031 C 261.082031 181.570312 256.292969 180.351562 256.292969 180.351562 C 256.292969 180.351562 257.105469 182.921875 262.660156 186.375 C 268.214844 189.828125 276.921875 187.125 276.921875 188.175781 C 276.921875 189.226562 311.304688 207.25 318.058594 207.097656 C 324.816406 206.949219 327.765625 195.949219 327.765625 195.949219 Z M 313.6875 189.570312 " fill-opacity="1" fill-rule="nonzero"/><path fill="#f4a67a" d="M 290.4375 330.550781 L 290.4375 336.054688 L 301.648438 335.054688 L 301.695312 330.550781 Z M 290.4375 330.550781 " fill-opacity="1" fill-rule="nonzero"/><path fill="#f4a67a" d="M 347.445312 330.75 L 348.925781 333.777344 L 358.476562 330.949219 L 356.761719 327.449219 Z M 347.445312 330.75 " fill-opacity="1" fill-rule="nonzero"/><path fill="#e59973" d="M 313.957031 146.125 C 313.957031 146.125 319.621094 145.242188 320.15625 141.765625 C 320.183594 142.636719 320.121094 143.664062 319.839844 144.777344 C 318.828125 148.816406 315.726562 151.09375 314.582031 151.851562 C 314.371094 149.941406 314.164062 148.035156 313.957031 146.125 Z M 313.957031 146.125 " fill-opacity="1" fill-rule="nonzero"/><path fill="#ea821b" d="M 335.671875 125.550781 L 335.660156 125.589844 C 335.34375 126.277344 335.011719 126.898438 334.6875 127.429688 L 308.378906 120.53125 C 306.429688 120.902344 303.320312 121.273438 301.320312 121.417969 C 294.070312 121.960938 287.105469 119.652344 287.203125 118.488281 C 287.214844 118.355469 287.320312 118.234375 288.335938 117.984375 C 288.644531 118.328125 289.84375 119.460938 294.652344 119.796875 C 297.488281 119.992188 301.8125 119.800781 304.878906 119.609375 C 307.003906 119.480469 308.523438 119.347656 308.523438 119.347656 Z M 335.671875 125.550781 " fill-opacity="1" fill-rule="nonzero"/><path fill="#f9a55a" d="M 335.660156 125.589844 L 335.59375 125.738281 C 335.570312 125.738281 335.550781 125.742188 335.527344 125.746094 C 335.898438 122.386719 335.414062 118.941406 334.136719 115.816406 C 333.660156 114.660156 333.070312 113.539062 332.21875 112.625 C 331.398438 111.742188 330.359375 111.089844 329.339844 110.449219 C 327.824219 109.5 326.292969 108.542969 324.59375 107.992188 C 321.371094 106.957031 317.84375 107.492188 314.59375 108.449219 C 312.007812 109.207031 309.496094 110.222656 307.109375 111.476562 C 306.125 111.992188 305.148438 112.566406 304.320312 113.308594 C 303.917969 113.667969 303.453125 114.359375 302.890625 114.386719 C 305.882812 108.703125 314.050781 103.800781 321.765625 105.503906 C 339.539062 109.433594 338.265625 119.878906 335.660156 125.589844 Z M 335.660156 125.589844 " fill-opacity="1" fill-rule="nonzero"/><path fill="#ea821b" d="M 309.347656 119.246094 C 308.359375 118.9375 307.367188 118.625 306.371094 118.316406 C 305.628906 118.085938 304.886719 117.851562 304.203125 117.480469 C 303.550781 117.125 302.519531 116.410156 302.34375 115.566406 C 302.355469 115.539062 302.363281 115.515625 302.375 115.488281 L 302.378906 115.488281 C 302.441406 115.332031 302.507812 115.171875 302.582031 115.011719 C 302.726562 115.238281 302.707031 115.539062 302.886719 115.804688 C 303.15625 116.195312 303.589844 116.4375 304.019531 116.632812 C 305.644531 117.359375 307.433594 117.742188 308.96875 118.644531 C 309.191406 118.777344 309.441406 119.003906 309.347656 119.246094 Z M 309.347656 119.246094 " fill-opacity="1" fill-rule="nonzero"/><path fill="#f7b19f" d="M 58.882812 188.96875 L 91.109375 176.183594 C 91.109375 176.183594 97.355469 168.101562 97.355469 171.351562 C 97.355469 174.597656 91.859375 179.222656 91.859375 179.222656 C 91.859375 179.222656 94.890625 185.34375 91.109375 187.09375 C 87.328125 188.84375 83.367188 186.078125 83.367188 186.078125 C 83.367188 186.078125 53.886719 206.109375 50.640625 203.472656 C 47.394531 200.835938 46.488281 195.066406 46.488281 195.066406 Z M 58.882812 188.96875 " fill-opacity="1" fill-rule="nonzero"/><path fill="#f7b19f" d="M 23.582031 159.363281 C 21.707031 159.226562 9.800781 182.65625 12.320312 187.457031 C 16.480469 195.382812 27.714844 208.019531 27.714844 208.019531 L 28.617188 196.761719 L 21.808594 186.28125 L 28.925781 179.769531 Z M 23.582031 159.363281 " fill-opacity="1" fill-rule="nonzero"/><path fill="#af232d" d="M 32.367188 321.5625 C 32.367188 321.5625 42.609375 327.640625 47.230469 327.539062 C 51.851562 327.433594 56.722656 328.808594 52.847656 331.054688 C 48.976562 333.304688 20.125 332.679688 20 331.054688 C 19.875 329.433594 19.875 321.0625 19.875 321.0625 Z M 32.367188 321.5625 " fill-opacity="1" fill-rule="nonzero"/><path fill="#c0272d" d="M 56.878906 321.5625 C 56.878906 321.5625 69.085938 327.433594 73.210938 326.933594 C 77.332031 326.433594 80.578125 331.304688 74.957031 332.929688 C 69.335938 334.554688 45.355469 332.304688 45.355469 331.933594 C 45.355469 331.558594 45.480469 321.5625 46.105469 321.5625 C 48.601562 321.5625 56.878906 321.5625 56.878906 321.5625 Z M 56.878906 321.5625 " fill-opacity="1" fill-rule="nonzero"/><path fill="#e04c1e" d="M 15.730469 203.472656 C 15.730469 203.472656 11.632812 213.113281 13.628906 221.730469 C 17.761719 239.5625 21.378906 247.199219 20.875 266.230469 C 20.722656 271.894531 20.054688 271.636719 19.125 280.328125 C 17.277344 297.585938 18.511719 311.710938 19.875 321.058594 C 24.039062 321.226562 28.203125 321.394531 32.367188 321.558594 C 35.113281 295.988281 37.859375 270.417969 40.609375 244.84375 C 38.058594 242.109375 28.355469 231.0625 30.117188 216.984375 C 30.464844 214.21875 31.203125 211.734375 32.117188 209.558594 Z M 15.730469 203.472656 " fill-opacity="1" fill-rule="nonzero"/><path fill="#f05a24" d="M 46.980469 210.113281 C 46.980469 210.113281 58.59375 248.59375 61.34375 258.089844 C 64.089844 267.585938 56.878906 321.5625 56.878906 321.5625 L 46.105469 321.5625 C 46.105469 321.5625 40.359375 293.574219 44.105469 282.328125 C 47.855469 271.085938 47.605469 267.585938 47.605469 267.585938 C 47.605469 267.585938 11.410156 227.738281 13.085938 216.984375 C 14.761719 206.230469 15.730469 203.472656 15.730469 203.472656 Z M 46.980469 210.113281 " fill-opacity="1" fill-rule="nonzero"/><path fill="#e27e1a" d="M 15.148438 173.863281 L 20.957031 182.742188 L 27.953125 181.335938 L 20.210938 159.496094 Z M 15.148438 173.863281 " fill-opacity="1" fill-rule="nonzero"/><path fill="#f6921e" d="M 51.84375 165.105469 C 50.46875 160.476562 38.113281 154.046875 38.113281 154.046875 L 27.285156 154.046875 C 23.882812 154.609375 22.195312 156.097656 21.292969 157.328125 C 17.628906 162.300781 22.207031 169.117188 20.957031 182.742188 C 20.527344 187.449219 19.664062 191.28125 19.113281 193.402344 C 16.894531 201.976562 14.292969 204.84375 14.066406 207.410156 C 14.03125 207.789062 14.050781 208.152344 14.128906 208.53125 C 14.894531 212.324219 21.523438 216.683594 49.390625 218.105469 C 48.882812 215.785156 48.148438 212.359375 47.269531 208.113281 C 46.515625 204.445312 46.132812 202.5 46.367188 199.839844 C 46.570312 197.582031 47.132812 195.75 47.605469 194.515625 C 48.980469 194.515625 51.296875 193.917969 53.523438 192.925781 C 55.753906 191.929688 57.882812 190.546875 58.886719 188.96875 C 58.886719 188.96875 53.21875 169.726562 51.84375 165.105469 Z M 51.84375 165.105469 " fill-opacity="1" fill-rule="nonzero"/><path fill="#f7b19f" d="M 53.480469 131.769531 L 53.125 135.660156 C 51.871094 139.5 51.335938 142.648438 51.085938 144.84375 C 50.835938 146.972656 50.847656 148.265625 49.917969 149.503906 C 48.320312 151.632812 45.199219 151.953125 43.007812 151.921875 C 43.011719 151.988281 43.011719 152.054688 43.011719 152.117188 C 43.054688 153.570312 43.09375 155.019531 43.136719 156.472656 C 43.152344 157 43.167969 157.523438 43.183594 158.050781 C 43.183594 158.050781 36.183594 164.164062 30.550781 158.050781 C 30.550781 158.050781 30.742188 151.261719 30.550781 143.726562 C 30.355469 136.191406 29.382812 131.136719 32.296875 129 C 35.214844 126.859375 47.457031 123.261719 53.480469 131.769531 Z M 53.480469 131.769531 " fill-opacity="1" fill-rule="nonzero"/><path fill="#e89b8b" d="M 53.125 135.660156 L 53.039062 136.585938 C 53 136.582031 52.945312 136.574219 52.875 136.566406 C 51.132812 136.382812 49.703125 137.417969 48.769531 138.117188 C 46.492188 139.8125 45.152344 142.21875 44.609375 143.304688 C 44.625 142.808594 44.789062 139.683594 47.449219 137.464844 C 49.835938 135.472656 52.554688 135.617188 53.125 135.660156 Z M 53.125 135.660156 " fill-opacity="1" fill-rule="nonzero"/><path fill="#42210b" d="M 22.675781 136.09375 C 22.484375 136.132812 19.328125 136.847656 16.84375 139.300781 C 11.515625 144.578125 13.199219 154.042969 13.878906 157.84375 C 15.1875 165.199219 18.675781 170.613281 21.3125 173.890625 C 22.058594 168.863281 22.105469 164.746094 21.996094 161.855469 C 21.738281 154.96875 20.472656 151.378906 22.578125 147.757812 C 24.105469 145.136719 26.667969 143.753906 28.605469 142.996094 C 29.28125 145.230469 29.957031 147.46875 30.632812 149.703125 C 32.257812 150.15625 33.878906 150.609375 35.503906 151.066406 C 38.597656 147.617188 39.445312 144.773438 39.625 142.773438 C 39.726562 141.621094 39.703125 140.082031 40.636719 139.488281 C 41.617188 138.867188 43 139.398438 43.675781 140.34375 C 44.351562 141.285156 44.488281 142.503906 44.550781 143.660156 C 45.09375 139.839844 48.101562 136.484375 51.84375 135.53125 C 46.566406 135.023438 41.292969 134.511719 36.019531 134.003906 C 35.746094 133.976562 35.078125 133.859375 34.214844 134.003906 C 32.167969 134.34375 30.726562 135.792969 29.878906 136.878906 C 28.828125 136.417969 26.0625 135.371094 22.675781 136.09375 Z M 22.675781 136.09375 " fill-opacity="1" fill-rule="nonzero"/><path fill="#f6921e" d="M 54.261719 135.996094 L 30.066406 135.996094 L 30.066406 133.582031 C 30.066406 127.574219 34.933594 122.707031 40.9375 122.707031 L 40.976562 122.707031 C 47.355469 122.707031 52.6875 127.210938 53.964844 133.210938 C 54.039062 133.554688 54.101562 133.902344 54.148438 134.257812 C 54.222656 134.828125 54.261719 135.410156 54.261719 135.996094 Z M 54.261719 135.996094 " fill-opacity="1" fill-rule="nonzero"/><path fill="#e5801a" d="M 47.269531 208.113281 C 48.148438 212.355469 48.882812 215.785156 49.390625 218.105469 C 21.523438 216.683594 14.898438 212.320312 14.128906 208.53125 C 14.050781 208.152344 14.03125 207.785156 14.066406 207.410156 C 14.28125 207.472656 14.492188 207.539062 14.695312 207.609375 C 28.570312 212.476562 35.777344 214.191406 37.832031 212.890625 C 41.128906 210.804688 40.609375 204.457031 39.84375 195.066406 C 39.117188 186.171875 36.917969 179.660156 39.628906 172.921875 C 40.050781 171.871094 41.355469 168.53125 43.101562 168.644531 C 43.992188 168.707031 44.90625 169.378906 45.664062 170.9375 C 48.503906 176.777344 51.367188 182.679688 52.8125 189.019531 C 53.109375 190.308594 53.339844 191.617188 53.523438 192.925781 C 51.296875 193.917969 48.980469 194.515625 47.601562 194.515625 C 47.132812 195.753906 46.570312 197.582031 46.367188 199.839844 C 46.132812 202.5 46.515625 204.445312 47.269531 208.113281 Z M 47.269531 208.113281 " fill-opacity="1" fill-rule="nonzero"/><path fill="#f6921e" d="M 54.261719 135.996094 L 52.511719 134.539062 C 52.511719 134.539062 52.578125 134.46875 52.707031 134.351562 C 52.941406 134.128906 53.386719 133.722656 53.964844 133.210938 C 55.902344 131.53125 59.375 128.777344 61.941406 128.222656 C 63.046875 127.984375 63.984375 128.15625 64.5625 128.996094 C 67.089844 132.691406 54.261719 135.996094 54.261719 135.996094 Z M 54.261719 135.996094 " fill-opacity="1" fill-rule="nonzero"/><path fill="#faaf3b" d="M 51.84375 165.105469 C 51.84375 165.105469 50.140625 161.980469 47.394531 162.917969 C 44.644531 163.855469 38.570312 168.351562 40.609375 172.851562 C 42.648438 177.347656 46.875 196.832031 46.875 196.832031 C 46.875 196.832031 55.136719 193.839844 58.882812 188.96875 Z M 51.84375 165.105469 " fill-opacity="1" fill-rule="nonzero"/><path fill="#e5801a" d="M 54.261719 135.996094 L 30.066406 135.996094 L 30.066406 133.976562 C 30.4375 134.027344 30.820312 134.09375 31.234375 134.15625 C 33.003906 134.40625 34.957031 134.207031 36.742188 134.234375 C 40.382812 134.285156 44.023438 134.339844 47.664062 134.390625 C 49.339844 134.417969 51.03125 134.4375 52.707031 134.355469 C 53.1875 134.332031 53.667969 134.300781 54.148438 134.257812 C 55.582031 134.128906 56.996094 133.902344 58.378906 133.519531 C 59.550781 133.1875 60.71875 132.730469 61.621094 131.914062 C 62.527344 131.101562 63.132812 129.875 62.953125 128.671875 C 62.585938 128.597656 62.246094 128.445312 61.945312 128.222656 C 63.046875 127.984375 63.984375 128.160156 64.5625 129 C 67.089844 132.691406 54.261719 135.996094 54.261719 135.996094 Z M 54.261719 135.996094 " fill-opacity="1" fill-rule="nonzero"/><path fill="#f9b673" d="M 32.78125 129.917969 C 32.875 129.445312 33.523438 126.4375 36.472656 124.683594 C 39.492188 122.886719 42.527344 123.835938 42.96875 123.984375 C 41.96875 123.953125 39.441406 124.007812 36.828125 125.601562 C 34.441406 127.058594 33.25 129.023438 32.78125 129.917969 Z M 32.78125 129.917969 " fill-opacity="1" fill-rule="nonzero"/><path fill="#e89b8b" d="M 43.136719 156.472656 C 42.8125 156.421875 42.492188 156.339844 42.199219 156.195312 C 41.484375 155.84375 40.984375 155.152344 40.695312 154.410156 C 40.410156 153.667969 40.3125 152.867188 40.21875 152.078125 C 40.160156 151.585938 40.105469 151.089844 40.183594 150.601562 C 40.183594 150.820312 42.179688 151.679688 43.015625 152.117188 C 43.054688 153.566406 43.09375 155.019531 43.136719 156.472656 Z M 43.136719 156.472656 " fill-opacity="1" fill-rule="nonzero"/></svg>