<svg xmlns="http://www.w3.org/2000/svg" xmlns:xlink="http://www.w3.org/1999/xlink" width="500" zoomAndPan="magnify" viewBox="0 0 375 374.999991" height="500" preserveAspectRatio="xMidYMid meet" version="1.0"><defs><g/></defs><g fill="#d9d9d9" fill-opacity="1"><g transform="translate(18.941438, 260.999983)"><g><path d="M 181.507812 -32.414062 L 175.984375 -40.574219 C 164.703125 -32.414062 161.101562 -41.535156 161.820312 -54.742188 L 161.582031 -132.769531 C 161.820312 -156.058594 156.296875 -165.421875 141.894531 -175.984375 L 98.675781 -139.730469 L 102.757812 -131.328125 C 116.925781 -140.210938 122.445312 -135.652344 122.925781 -120.765625 L 122.925781 -83.3125 C 93.875 -123.886719 59.542969 -175.746094 37.695312 -175.984375 L -5.761719 -139.253906 L -1.921875 -130.847656 C 12.246094 -139.730469 17.765625 -135.171875 18.246094 -120.285156 L 18.246094 -41.777344 C 18.246094 -20.40625 26.648438 -6.484375 37.453125 0 L 76.828125 -32.414062 L 71.308594 -40.335938 C 60.023438 -32.171875 55.941406 -37.214844 56.421875 -52.097656 L 56.421875 -108.28125 C 90.753906 -65.304688 128.449219 0 141.652344 0 L 142.375 -0.480469 Z M 181.507812 -32.414062 "/></g></g></g><g fill="#33e67a" fill-opacity="1"><g transform="translate(209.121056, 260.999983)"><g><path d="M 144.292969 -172.144531 C 124.847656 -189.671875 91.472656 -171.425781 68.664062 -149.816406 L 73.707031 -141.171875 C 92.675781 -152.9375 101.796875 -152.457031 109 -142.855469 C 115.484375 -134.210938 101.796875 -86.914062 85.953125 -45.855469 C 66.984375 -75.148438 53.539062 -179.828125 25.929688 -175.984375 L -17.285156 -139.972656 L -13.203125 -132.289062 C 25.929688 -158.21875 33.613281 0 65.785156 0 L 110.921875 -36.734375 C 110.921875 -36.734375 167.582031 -148.617188 144.292969 -172.144531 Z M 144.292969 -172.144531 "/></g></g></g></svg>