<svg xmlns="http://www.w3.org/2000/svg" xmlns:xlink="http://www.w3.org/1999/xlink" width="500" zoomAndPan="magnify" viewBox="0 0 375 374.999991" height="500" preserveAspectRatio="xMidYMid meet" version="1.0"><defs><clipPath id="0680494c2b"><path d="M 29.484375 8 L 345.234375 8 L 345.234375 367.015625 L 29.484375 367.015625 Z M 29.484375 8 " clip-rule="nonzero"/></clipPath></defs><path fill="#f2d1a5" d="M 130.203125 82.777344 L 213.21875 130.722656 C 215.746094 132.179688 217.191406 134.6875 217.191406 137.609375 L 217.191406 233.496094 C 217.191406 236.414062 215.746094 238.921875 213.21875 240.382812 L 130.203125 288.324219 C 127.675781 289.785156 124.78125 289.785156 122.253906 288.324219 L 39.238281 240.382812 C 36.710938 238.921875 35.261719 236.414062 35.261719 233.496094 L 35.261719 137.609375 C 35.261719 134.6875 36.710938 132.179688 39.238281 130.722656 L 122.253906 82.777344 C 124.78125 81.320312 127.675781 81.320312 130.203125 82.777344 Z M 130.203125 82.777344 " fill-opacity="1" fill-rule="evenodd"/><path fill="#e3a76f" d="M 216.152344 133.617188 C 216.832031 134.792969 217.195312 136.148438 217.195312 137.609375 L 217.195312 233.496094 C 217.195312 236.414062 215.746094 238.921875 213.21875 240.382812 L 130.203125 288.324219 C 128.941406 289.054688 127.585938 289.417969 126.230469 289.417969 L 126.230469 185.550781 Z M 216.152344 133.617188 " fill-opacity="1" fill-rule="evenodd"/><path fill="#c48958" d="M 130.203125 82.777344 L 213.21875 130.722656 C 214.484375 131.453125 215.476562 132.441406 216.152344 133.617188 L 126.230469 185.550781 L 36.304688 133.617188 C 36.980469 132.441406 37.976562 131.449219 39.238281 130.722656 L 122.253906 82.777344 C 124.78125 81.320312 127.675781 81.320312 130.203125 82.777344 Z M 130.203125 82.777344 " fill-opacity="1" fill-rule="evenodd"/><path fill="#b5733e" d="M 67.554688 151.667969 L 93.9375 166.902344 L 184.902344 114.367188 L 158.519531 99.132812 Z M 67.554688 151.667969 " fill-opacity="1" fill-rule="evenodd"/><path fill="#e3a76f" d="M 87.976562 204.832031 L 71.53125 195.335938 C 69.003906 193.875 67.554688 191.371094 67.554688 188.449219 L 67.554688 151.664062 L 93.9375 166.902344 L 93.9375 201.386719 C 93.9375 202.847656 93.210938 204.101562 91.949219 204.832031 C 90.683594 205.5625 89.238281 205.5625 87.976562 204.832031 Z M 87.976562 204.832031 " fill-opacity="1" fill-rule="evenodd"/><path fill="#f2d1a5" d="M 252.460938 153.386719 L 335.476562 201.328125 C 338.003906 202.789062 339.449219 205.296875 339.449219 208.214844 L 339.449219 304.101562 C 339.449219 307.023438 338.003906 309.527344 335.476562 310.988281 L 252.460938 358.933594 C 249.933594 360.390625 247.039062 360.390625 244.511719 358.933594 L 161.496094 310.988281 C 158.96875 309.527344 157.523438 307.023438 157.523438 304.101562 L 157.523438 208.214844 C 157.523438 205.296875 158.96875 202.789062 161.496094 201.328125 L 244.511719 153.386719 C 247.039062 151.925781 249.933594 151.925781 252.460938 153.386719 Z M 252.460938 153.386719 " fill-opacity="1" fill-rule="evenodd"/><path fill="#ecba78" d="M 338.414062 204.222656 C 339.089844 205.398438 339.453125 206.753906 339.453125 208.214844 L 339.453125 304.101562 C 339.453125 307.019531 338.003906 309.527344 335.476562 310.988281 L 252.460938 358.929688 C 251.199219 359.660156 249.84375 360.027344 248.488281 360.027344 L 248.488281 256.160156 Z M 338.414062 204.222656 " fill-opacity="1" fill-rule="evenodd"/><path fill="#e3a76f" d="M 252.460938 153.386719 L 335.476562 201.328125 C 336.742188 202.058594 337.734375 203.050781 338.414062 204.222656 L 248.488281 256.160156 L 158.5625 204.222656 C 159.238281 203.050781 160.234375 202.058594 161.496094 201.328125 L 244.511719 153.386719 C 247.039062 151.925781 249.933594 151.925781 252.460938 153.386719 Z M 252.460938 153.386719 " fill-opacity="1" fill-rule="evenodd"/><path fill="#c48958" d="M 189.816406 222.273438 L 216.195312 237.507812 L 307.160156 184.972656 L 280.78125 169.738281 Z M 189.816406 222.273438 " fill-opacity="1" fill-rule="evenodd"/><path fill="#e3a76f" d="M 210.234375 275.441406 L 193.789062 265.941406 C 191.261719 264.484375 189.816406 261.976562 189.816406 259.058594 L 189.816406 222.273438 L 216.195312 237.507812 L 216.195312 271.996094 C 216.195312 273.457031 215.472656 274.707031 214.207031 275.4375 C 212.945312 276.167969 211.496094 276.167969 210.234375 275.441406 Z M 210.234375 275.441406 " fill-opacity="1" fill-rule="evenodd"/><path fill="#f2d1a5" d="M 196.738281 16.136719 L 279.753906 64.082031 C 282.28125 65.542969 283.730469 68.046875 283.730469 70.96875 L 283.730469 166.855469 C 283.730469 169.773438 282.28125 172.28125 279.753906 173.742188 L 196.738281 221.683594 C 194.210938 223.144531 191.320312 223.144531 188.789062 221.683594 L 105.773438 173.742188 C 103.246094 172.28125 101.800781 169.773438 101.800781 166.855469 L 101.800781 70.96875 C 101.800781 68.046875 103.246094 65.542969 105.773438 64.082031 L 188.789062 16.136719 C 191.320312 14.679688 194.210938 14.679688 196.738281 16.136719 Z M 196.738281 16.136719 " fill-opacity="1" fill-rule="evenodd"/><path fill="#ecba78" d="M 282.691406 66.976562 C 283.367188 68.152344 283.730469 69.507812 283.730469 70.964844 L 283.730469 166.855469 C 283.730469 169.773438 282.28125 172.28125 279.753906 173.738281 L 196.738281 221.683594 C 195.476562 222.414062 194.121094 222.777344 192.765625 222.777344 L 192.765625 118.910156 Z M 282.691406 66.976562 " fill-opacity="1" fill-rule="evenodd"/><path fill="#e3a76f" d="M 196.738281 16.136719 L 279.753906 64.082031 C 281.019531 64.8125 282.011719 65.804688 282.691406 66.976562 L 192.765625 118.910156 L 102.839844 66.976562 C 103.515625 65.804688 104.511719 64.8125 105.773438 64.082031 L 188.789062 16.136719 C 191.320312 14.679688 194.210938 14.679688 196.738281 16.136719 Z M 196.738281 16.136719 " fill-opacity="1" fill-rule="evenodd"/><path fill="#c48958" d="M 134.09375 85.027344 L 160.472656 100.261719 L 251.4375 47.726562 L 225.058594 32.492188 Z M 134.09375 85.027344 " fill-opacity="1" fill-rule="evenodd"/><path fill="#e3a76f" d="M 154.511719 138.191406 L 138.066406 128.695312 C 135.539062 127.234375 134.09375 124.730469 134.09375 121.808594 L 134.09375 85.027344 L 160.472656 100.261719 L 160.472656 134.75 C 160.472656 136.207031 159.75 137.460938 158.484375 138.191406 C 157.222656 138.921875 155.773438 138.921875 154.511719 138.191406 Z M 154.511719 138.191406 " fill-opacity="1" fill-rule="evenodd"/><g clip-path="url(#0680494c2b)"><path fill="#000000" d="M 254.273438 351.195312 L 254.273438 259.5 L 333.664062 213.652344 L 333.664062 305.347656 Z M 163.308594 213.65625 L 184.027344 225.617188 L 184.027344 263.648438 C 184.027344 265.71875 185.128906 267.628906 186.921875 268.664062 L 213.304688 283.898438 C 214.199219 284.410156 215.195312 284.667969 216.199219 284.667969 C 217.191406 284.667969 218.191406 284.410156 219.089844 283.898438 C 220.875 282.863281 221.984375 280.949219 221.984375 278.882812 L 221.984375 247.539062 L 242.699219 259.5 L 242.699219 351.195312 L 163.308594 305.347656 Z M 132.015625 280.589844 L 132.015625 195.582031 L 151.734375 206.96875 L 151.734375 269.199219 Z M 41.050781 143.050781 L 61.765625 155.011719 L 61.765625 193.046875 C 61.765625 195.113281 62.875 197.023438 64.660156 198.050781 L 91.046875 213.292969 C 91.9375 213.808594 92.933594 214.066406 93.941406 214.066406 C 94.9375 214.066406 95.9375 213.804688 96.835938 213.292969 C 98.621094 212.257812 99.726562 210.34375 99.726562 208.273438 L 99.726562 176.933594 L 120.441406 188.894531 L 120.441406 280.589844 L 41.054688 234.742188 L 41.054688 143.050781 Z M 96.019531 128.546875 L 96.019531 104.621094 L 46.839844 133.015625 L 67.554688 144.980469 Z M 192.761719 20.535156 L 213.484375 32.492188 L 134.09375 78.339844 L 113.378906 66.378906 Z M 195.605469 232.304688 L 195.605469 260.304688 L 210.410156 268.851562 L 210.410156 240.851562 Z M 160.472656 93.578125 L 239.863281 47.730469 L 225.058594 39.183594 L 145.667969 85.03125 Z M 139.882812 95.050781 L 154.6875 103.605469 L 154.6875 131.605469 L 139.882812 123.058594 Z M 192.761719 112.226562 L 272.152344 66.378906 L 251.4375 54.417969 L 172.046875 100.265625 Z M 277.9375 168.101562 L 277.9375 76.402344 L 198.546875 122.257812 L 198.546875 213.949219 Z M 204.335938 223.980469 L 216.199219 230.828125 L 295.585938 184.972656 L 283.726562 178.128906 Z M 96.019531 159.023438 L 96.019531 141.921875 L 79.132812 151.667969 L 93.941406 160.214844 Z M 73.34375 161.699219 L 73.34375 189.699219 L 88.152344 198.246094 L 88.152344 170.246094 Z M 107.59375 168.101562 L 186.972656 213.949219 L 186.972656 122.257812 L 166.261719 110.285156 L 166.261719 141.636719 C 166.261719 143.699219 165.15625 145.609375 163.367188 146.644531 C 162.472656 147.167969 161.46875 147.429688 160.472656 147.429688 C 159.476562 147.429688 158.476562 147.167969 157.578125 146.644531 L 131.199219 131.414062 C 129.40625 130.375 128.308594 128.464844 128.308594 126.40625 L 128.308594 88.371094 L 107.59375 76.402344 Z M 248.484375 249.46875 L 327.875 203.621094 L 307.160156 191.664062 L 227.773438 237.507812 Z M 342.34375 198.609375 L 289.515625 168.101562 L 289.515625 66.378906 C 289.515625 64.308594 288.417969 62.398438 286.621094 61.363281 L 195.65625 8.828125 C 193.871094 7.796875 191.664062 7.796875 189.867188 8.828125 L 98.914062 61.363281 C 97.117188 62.398438 96.019531 64.308594 96.019531 66.378906 L 96.019531 91.246094 L 32.371094 128.003906 C 30.578125 129.039062 29.476562 130.949219 29.476562 133.015625 L 29.476562 238.089844 C 29.476562 240.15625 30.578125 242.066406 32.371094 243.101562 L 123.335938 295.628906 C 124.230469 296.148438 125.230469 296.410156 126.230469 296.410156 C 127.230469 296.410156 128.226562 296.148438 129.121094 295.628906 L 151.734375 282.574219 L 151.734375 308.691406 C 151.734375 310.761719 152.839844 312.671875 154.625 313.707031 L 245.59375 366.242188 C 246.488281 366.753906 247.488281 367.015625 248.484375 367.015625 C 249.484375 367.015625 250.480469 366.753906 251.378906 366.242188 L 342.34375 313.707031 C 344.136719 312.671875 345.238281 310.761719 345.238281 308.691406 L 345.238281 203.621094 C 345.238281 201.554688 344.136719 199.644531 342.34375 198.609375 Z M 342.34375 198.609375 " fill-opacity="1" fill-rule="evenodd"/></g></svg>