<svg xmlns="http://www.w3.org/2000/svg" xmlns:xlink="http://www.w3.org/1999/xlink" width="500" zoomAndPan="magnify" viewBox="0 0 375 374.999991" height="500" preserveAspectRatio="xMidYMid meet" version="1.0"><defs><clipPath id="f28cc489eb"><path d="M 12.710938 358 L 44 358 L 44 362.210938 L 12.710938 362.210938 Z M 12.710938 358 " clip-rule="nonzero"/></clipPath><clipPath id="9ae4b1430d"><path d="M 331 358 L 362.210938 358 L 362.210938 362.210938 L 331 362.210938 Z M 331 358 " clip-rule="nonzero"/></clipPath><clipPath id="8349ba2d81"><path d="M 53 358 L 322 358 L 322 362.210938 L 53 362.210938 Z M 53 358 " clip-rule="nonzero"/></clipPath><clipPath id="fa1b51d9b9"><path d="M 12.710938 100 L 362.210938 100 L 362.210938 347 L 12.710938 347 Z M 12.710938 100 " clip-rule="nonzero"/></clipPath><clipPath id="1cb43b2872"><path d="M 12.710938 68 L 84 68 L 84 101 L 12.710938 101 Z M 12.710938 68 " clip-rule="nonzero"/></clipPath><clipPath id="0843479c13"><path d="M 291 68 L 362.210938 68 L 362.210938 101 L 291 101 Z M 291 68 " clip-rule="nonzero"/></clipPath><clipPath id="606e897e5d"><path d="M 152 12.710938 L 223 12.710938 L 223 44 L 152 44 Z M 152 12.710938 " clip-rule="nonzero"/></clipPath></defs><path fill="#cecece" d="M 67.75 87.84375 C 67.75 78.5625 60.222656 71.035156 50.941406 71.035156 C 42.550781 71.035156 35.617188 77.191406 34.355469 85.230469 C 33.347656 85.039062 32.308594 84.929688 31.246094 84.929688 C 23.222656 84.929688 16.523438 90.558594 14.851562 98.078125 L 81.136719 98.078125 C 79.527344 92.183594 74.152344 87.84375 67.75 87.84375 Z M 67.75 87.84375 " fill-opacity="1" fill-rule="nonzero"/><path fill="#afafaf" d="M 51.726562 84.929688 C 52.789062 84.929688 53.828125 85.039062 54.835938 85.230469 C 55.515625 80.890625 57.859375 77.109375 61.183594 74.539062 C 58.347656 72.351562 54.804688 71.035156 50.941406 71.035156 C 42.550781 71.035156 35.617188 77.191406 34.359375 85.230469 C 33.347656 85.039062 32.3125 84.929688 31.246094 84.929688 C 23.222656 84.929688 16.523438 90.558594 14.851562 98.078125 L 35.332031 98.078125 C 37 90.558594 43.699219 84.929688 51.726562 84.929688 Z M 51.726562 84.929688 " fill-opacity="1" fill-rule="nonzero"/><path fill="#cecece" d="M 346.679688 87.84375 C 346.679688 78.5625 339.15625 71.035156 329.875 71.035156 C 321.480469 71.035156 314.546875 77.191406 313.289062 85.230469 C 312.28125 85.039062 311.242188 84.929688 310.179688 84.929688 C 302.15625 84.929688 295.457031 90.558594 293.78125 98.078125 L 360.066406 98.078125 C 358.460938 92.183594 353.082031 87.84375 346.679688 87.84375 Z M 346.679688 87.84375 " fill-opacity="1" fill-rule="nonzero"/><path fill="#e2e2e2" d="M 346.679688 87.84375 C 346.679688 78.5625 339.15625 71.035156 329.875 71.035156 C 326.011719 71.035156 322.472656 72.351562 319.636719 74.539062 C 323.625 77.613281 326.203125 82.421875 326.203125 87.84375 C 332.605469 87.84375 337.984375 92.183594 339.589844 98.078125 L 360.070312 98.078125 C 358.460938 92.183594 353.082031 87.84375 346.679688 87.84375 Z M 346.679688 87.84375 " fill-opacity="1" fill-rule="nonzero"/><path fill="#cecece" d="M 207.214844 31.691406 C 207.214844 22.410156 199.6875 14.886719 190.40625 14.886719 C 182.015625 14.886719 175.082031 21.039062 173.824219 29.078125 C 172.8125 28.886719 171.773438 28.777344 170.710938 28.777344 C 162.6875 28.777344 155.988281 34.40625 154.316406 41.925781 L 220.601562 41.925781 C 218.996094 36.03125 213.617188 31.691406 207.214844 31.691406 Z M 207.214844 31.691406 " fill-opacity="1" fill-rule="nonzero"/><path fill="#afafaf" d="M 191.191406 28.777344 C 192.257812 28.777344 193.292969 28.886719 194.300781 29.078125 C 194.984375 24.738281 197.324219 20.957031 200.652344 18.386719 C 197.8125 16.199219 194.269531 14.886719 190.40625 14.886719 C 182.015625 14.886719 175.082031 21.039062 173.824219 29.078125 C 172.8125 28.886719 171.777344 28.777344 170.710938 28.777344 C 162.6875 28.777344 155.988281 34.40625 154.316406 41.925781 L 174.796875 41.925781 C 176.46875 34.40625 183.167969 28.777344 191.191406 28.777344 Z M 191.191406 28.777344 " fill-opacity="1" fill-rule="nonzero"/><path fill="#63bce7" d="M 235.164062 164.832031 L 254.410156 164.832031 C 271.214844 164.832031 286.945312 173.105469 296.472656 186.949219 L 320.855469 222.390625 C 322.511719 224.796875 323.394531 227.648438 323.394531 230.570312 L 323.394531 290.035156 L 220.734375 290.035156 L 220.734375 179.257812 C 220.738281 171.292969 227.195312 164.832031 235.164062 164.832031 Z M 235.164062 164.832031 " fill-opacity="1" fill-rule="nonzero"/><path fill="#63e2e7" d="M 320.855469 222.390625 L 296.472656 186.949219 C 286.949219 173.105469 271.21875 164.832031 254.410156 164.832031 L 235.164062 164.832031 C 235.007812 164.832031 234.855469 164.851562 234.699219 164.855469 C 251.214844 165.105469 266.613281 173.316406 275.996094 186.949219 L 300.378906 222.390625 C 302.035156 224.796875 302.917969 227.648438 302.917969 230.570312 L 302.917969 290.035156 L 323.398438 290.035156 L 323.398438 230.570312 C 323.398438 227.648438 322.511719 224.796875 320.855469 222.390625 Z M 320.855469 222.390625 " fill-opacity="1" fill-rule="nonzero"/><path fill="#63bce7" d="M 235.839844 194.035156 L 235.839844 213.785156 C 235.839844 218.175781 239.398438 221.734375 243.789062 221.734375 L 281.757812 221.734375 C 288.363281 221.734375 292.085938 214.148438 288.046875 208.925781 L 272.773438 189.171875 C 271.269531 187.226562 268.945312 186.085938 266.484375 186.085938 L 243.789062 186.085938 C 239.398438 186.085938 235.839844 189.644531 235.839844 194.035156 Z M 235.839844 194.035156 " fill-opacity="1" fill-rule="nonzero"/><path fill="#cecece" d="M 235.839844 194.035156 L 235.839844 213.785156 C 235.839844 218.175781 239.398438 221.734375 243.789062 221.734375 L 281.757812 221.734375 C 288.363281 221.734375 292.085938 214.148438 288.046875 208.925781 L 272.773438 189.171875 C 271.269531 187.226562 268.945312 186.085938 266.484375 186.085938 L 243.789062 186.085938 C 239.398438 186.085938 235.839844 189.644531 235.839844 194.035156 Z M 235.839844 194.035156 " fill-opacity="1" fill-rule="nonzero"/><path fill="#63bce7" d="M 45.929688 312.625 L 328.992188 312.625 C 334.761719 312.625 339.480469 307.902344 339.480469 302.132812 L 339.480469 300.523438 C 339.480469 294.753906 334.761719 290.035156 328.992188 290.035156 L 45.929688 290.035156 C 40.160156 290.035156 35.441406 294.753906 35.441406 300.523438 L 35.441406 302.132812 C 35.441406 307.902344 40.160156 312.625 45.929688 312.625 Z M 45.929688 312.625 " fill-opacity="1" fill-rule="nonzero"/><path fill="#63e2e7" d="M 328.992188 290.035156 L 308.511719 290.035156 C 314.28125 290.035156 319 294.753906 319 300.523438 L 319 302.132812 C 319 307.902344 314.28125 312.625 308.511719 312.625 L 328.992188 312.625 C 334.761719 312.625 339.480469 307.902344 339.480469 302.132812 L 339.480469 300.523438 C 339.480469 294.753906 334.761719 290.035156 328.992188 290.035156 Z M 328.992188 290.035156 " fill-opacity="1" fill-rule="nonzero"/><path fill="#6377e7" d="M 55.917969 302.132812 L 55.917969 300.523438 C 55.917969 294.753906 60.636719 290.035156 66.40625 290.035156 L 45.929688 290.035156 C 40.160156 290.035156 35.441406 294.753906 35.441406 300.523438 L 35.441406 302.132812 C 35.441406 307.902344 40.160156 312.625 45.929688 312.625 L 66.40625 312.625 C 60.636719 312.625 55.917969 307.902344 55.917969 302.132812 Z M 55.917969 302.132812 " fill-opacity="1" fill-rule="nonzero"/><path fill="#cecece" d="M 126.625 317.089844 C 126.625 317.976562 126.582031 318.859375 126.496094 319.742188 C 126.410156 320.621094 126.28125 321.5 126.105469 322.367188 C 125.933594 323.234375 125.71875 324.09375 125.460938 324.941406 C 125.203125 325.789062 124.90625 326.625 124.566406 327.441406 C 124.226562 328.261719 123.851562 329.0625 123.433594 329.84375 C 123.015625 330.625 122.558594 331.382812 122.066406 332.121094 C 121.574219 332.855469 121.046875 333.566406 120.484375 334.253906 C 119.921875 334.9375 119.328125 335.59375 118.703125 336.21875 C 118.074219 336.847656 117.421875 337.441406 116.734375 338.003906 C 116.050781 338.566406 115.339844 339.09375 114.601562 339.585938 C 113.867188 340.078125 113.105469 340.53125 112.324219 340.949219 C 111.542969 341.367188 110.742188 341.746094 109.925781 342.085938 C 109.105469 342.421875 108.273438 342.722656 107.425781 342.980469 C 106.578125 343.234375 105.71875 343.453125 104.851562 343.625 C 103.980469 343.796875 103.105469 343.925781 102.222656 344.011719 C 101.339844 344.101562 100.457031 344.144531 99.570312 344.144531 C 98.6875 344.144531 97.800781 344.101562 96.917969 344.011719 C 96.039062 343.925781 95.164062 343.796875 94.292969 343.625 C 93.425781 343.453125 92.566406 343.234375 91.71875 342.980469 C 90.871094 342.722656 90.035156 342.421875 89.21875 342.085938 C 88.398438 341.746094 87.601562 341.367188 86.816406 340.949219 C 86.035156 340.53125 85.277344 340.078125 84.539062 339.585938 C 83.804688 339.09375 83.09375 338.566406 82.410156 338.003906 C 81.722656 337.441406 81.066406 336.847656 80.441406 336.21875 C 79.816406 335.59375 79.21875 334.9375 78.65625 334.253906 C 78.097656 333.566406 77.570312 332.855469 77.078125 332.121094 C 76.585938 331.382812 76.128906 330.625 75.710938 329.84375 C 75.292969 329.0625 74.914062 328.261719 74.578125 327.441406 C 74.238281 326.625 73.9375 325.789062 73.683594 324.941406 C 73.425781 324.09375 73.210938 323.234375 73.035156 322.367188 C 72.863281 321.5 72.734375 320.621094 72.648438 319.742188 C 72.558594 318.859375 72.515625 317.976562 72.515625 317.089844 C 72.515625 316.203125 72.558594 315.320312 72.648438 314.4375 C 72.734375 313.554688 72.863281 312.679688 73.035156 311.8125 C 73.210938 310.941406 73.425781 310.082031 73.683594 309.234375 C 73.9375 308.386719 74.238281 307.554688 74.578125 306.734375 C 74.914062 305.917969 75.292969 305.117188 75.710938 304.335938 C 76.128906 303.554688 76.585938 302.796875 77.078125 302.058594 C 77.570312 301.320312 78.097656 300.609375 78.65625 299.925781 C 79.21875 299.242188 79.816406 298.585938 80.441406 297.957031 C 81.066406 297.332031 81.722656 296.738281 82.410156 296.175781 C 83.09375 295.613281 83.804688 295.085938 84.539062 294.59375 C 85.277344 294.101562 86.035156 293.648438 86.816406 293.230469 C 87.601562 292.8125 88.398438 292.433594 89.21875 292.09375 C 90.035156 291.753906 90.871094 291.457031 91.71875 291.199219 C 92.566406 290.941406 93.425781 290.726562 94.292969 290.554688 C 95.164062 290.382812 96.039062 290.25 96.917969 290.164062 C 97.800781 290.078125 98.6875 290.035156 99.570312 290.035156 C 100.457031 290.035156 101.339844 290.078125 102.222656 290.164062 C 103.105469 290.25 103.980469 290.382812 104.851562 290.554688 C 105.71875 290.726562 106.578125 290.941406 107.425781 291.199219 C 108.273438 291.457031 109.105469 291.753906 109.925781 292.09375 C 110.742188 292.433594 111.542969 292.8125 112.324219 293.230469 C 113.105469 293.648438 113.867188 294.101562 114.601562 294.59375 C 115.339844 295.085938 116.050781 295.613281 116.734375 296.175781 C 117.421875 296.738281 118.074219 297.332031 118.703125 297.957031 C 119.328125 298.585938 119.921875 299.242188 120.484375 299.925781 C 121.046875 300.609375 121.574219 301.320312 122.066406 302.058594 C 122.558594 302.796875 123.015625 303.554688 123.433594 304.335938 C 123.851562 305.117188 124.226562 305.917969 124.566406 306.734375 C 124.90625 307.554688 125.203125 308.386719 125.460938 309.234375 C 125.71875 310.082031 125.933594 310.941406 126.105469 311.8125 C 126.28125 312.679688 126.410156 313.554688 126.496094 314.4375 C 126.582031 315.320312 126.625 316.203125 126.625 317.089844 Z M 126.625 317.089844 " fill-opacity="1" fill-rule="nonzero"/><path fill="#afafaf" d="M 92.996094 317.089844 C 92.996094 305.773438 99.949219 296.089844 109.8125 292.054688 C 106.652344 290.757812 103.199219 290.035156 99.570312 290.035156 C 84.628906 290.035156 72.515625 302.148438 72.515625 317.089844 C 72.515625 332.03125 84.628906 344.144531 99.570312 344.144531 C 103.199219 344.144531 106.652344 343.417969 109.8125 342.125 C 99.949219 338.085938 92.996094 328.40625 92.996094 317.089844 Z M 92.996094 317.089844 " fill-opacity="1" fill-rule="nonzero"/><path fill="#cecece" d="M 290.210938 317.089844 C 290.210938 317.976562 290.167969 318.859375 290.078125 319.742188 C 289.992188 320.621094 289.863281 321.5 289.691406 322.367188 C 289.519531 323.234375 289.300781 324.09375 289.046875 324.941406 C 288.789062 325.789062 288.488281 326.625 288.152344 327.441406 C 287.8125 328.261719 287.433594 329.0625 287.015625 329.84375 C 286.597656 330.625 286.144531 331.382812 285.652344 332.121094 C 285.160156 332.855469 284.632812 333.566406 284.070312 334.253906 C 283.507812 334.9375 282.914062 335.59375 282.285156 336.21875 C 281.660156 336.847656 281.003906 337.441406 280.320312 338.003906 C 279.632812 338.566406 278.921875 339.09375 278.1875 339.585938 C 277.449219 340.078125 276.691406 340.53125 275.910156 340.949219 C 275.128906 341.367188 274.328125 341.746094 273.507812 342.085938 C 272.691406 342.421875 271.855469 342.722656 271.007812 342.980469 C 270.160156 343.234375 269.300781 343.453125 268.433594 343.625 C 267.566406 343.796875 266.6875 343.925781 265.808594 344.011719 C 264.925781 344.101562 264.042969 344.144531 263.15625 344.144531 C 262.269531 344.144531 261.386719 344.101562 260.503906 344.011719 C 259.621094 343.925781 258.746094 343.796875 257.878906 343.625 C 257.007812 343.453125 256.148438 343.234375 255.300781 342.980469 C 254.453125 342.722656 253.621094 342.421875 252.800781 342.085938 C 251.984375 341.746094 251.183594 341.367188 250.402344 340.949219 C 249.621094 340.53125 248.863281 340.078125 248.125 339.585938 C 247.386719 339.09375 246.675781 338.566406 245.992188 338.003906 C 245.308594 337.441406 244.652344 336.847656 244.023438 336.21875 C 243.398438 335.59375 242.804688 334.9375 242.242188 334.253906 C 241.679688 333.566406 241.152344 332.855469 240.660156 332.121094 C 240.167969 331.382812 239.714844 330.625 239.296875 329.84375 C 238.878906 329.0625 238.5 328.261719 238.160156 327.441406 C 237.820312 326.625 237.523438 325.789062 237.265625 324.941406 C 237.007812 324.09375 236.792969 323.234375 236.621094 322.367188 C 236.449219 321.5 236.316406 320.621094 236.230469 319.742188 C 236.144531 318.859375 236.101562 317.976562 236.101562 317.089844 C 236.101562 316.203125 236.144531 315.320312 236.230469 314.4375 C 236.316406 313.554688 236.449219 312.679688 236.621094 311.8125 C 236.792969 310.941406 237.007812 310.082031 237.265625 309.234375 C 237.523438 308.386719 237.820312 307.554688 238.160156 306.734375 C 238.5 305.917969 238.878906 305.117188 239.296875 304.335938 C 239.714844 303.554688 240.167969 302.796875 240.660156 302.058594 C 241.152344 301.320312 241.679688 300.609375 242.242188 299.925781 C 242.804688 299.242188 243.398438 298.585938 244.023438 297.957031 C 244.652344 297.332031 245.308594 296.738281 245.992188 296.175781 C 246.675781 295.613281 247.386719 295.085938 248.125 294.59375 C 248.863281 294.101562 249.621094 293.648438 250.402344 293.230469 C 251.183594 292.8125 251.984375 292.433594 252.800781 292.09375 C 253.621094 291.753906 254.453125 291.457031 255.300781 291.199219 C 256.148438 290.941406 257.007812 290.726562 257.878906 290.554688 C 258.746094 290.382812 259.621094 290.25 260.503906 290.164062 C 261.386719 290.078125 262.269531 290.035156 263.15625 290.035156 C 264.042969 290.035156 264.925781 290.078125 265.808594 290.164062 C 266.6875 290.25 267.566406 290.382812 268.433594 290.554688 C 269.300781 290.726562 270.160156 290.941406 271.007812 291.199219 C 271.855469 291.457031 272.691406 291.753906 273.507812 292.09375 C 274.328125 292.433594 275.128906 292.8125 275.910156 293.230469 C 276.691406 293.648438 277.449219 294.101562 278.1875 294.59375 C 278.921875 295.085938 279.632812 295.613281 280.320312 296.175781 C 281.003906 296.738281 281.660156 297.332031 282.285156 297.957031 C 282.914062 298.585938 283.507812 299.242188 284.070312 299.925781 C 284.632812 300.609375 285.160156 301.320312 285.652344 302.058594 C 286.144531 302.796875 286.597656 303.554688 287.015625 304.335938 C 287.433594 305.117188 287.8125 305.917969 288.152344 306.734375 C 288.488281 307.554688 288.789062 308.386719 289.046875 309.234375 C 289.300781 310.082031 289.519531 310.941406 289.691406 311.8125 C 289.863281 312.679688 289.992188 313.554688 290.078125 314.4375 C 290.167969 315.320312 290.210938 316.203125 290.210938 317.089844 Z M 290.210938 317.089844 " fill-opacity="1" fill-rule="nonzero"/><path fill="#e2e2e2" d="M 263.15625 290.035156 C 259.53125 290.035156 256.078125 290.757812 252.917969 292.054688 C 262.777344 296.089844 269.730469 305.773438 269.730469 317.089844 C 269.730469 328.40625 262.777344 338.085938 252.917969 342.125 C 256.078125 343.417969 259.53125 344.144531 263.15625 344.144531 C 278.097656 344.144531 290.210938 332.03125 290.210938 317.089844 C 290.210938 302.148438 278.097656 290.035156 263.15625 290.035156 Z M 263.15625 290.035156 " fill-opacity="1" fill-rule="nonzero"/><path fill="#cecece" d="M 43.152344 221.734375 L 220.738281 221.734375 L 220.738281 290.035156 L 43.152344 290.035156 Z M 43.152344 221.734375 " fill-opacity="1" fill-rule="nonzero"/><path fill="#afafaf" d="M 43.152344 221.734375 L 63.628906 221.734375 L 63.628906 290.03125 L 43.152344 290.03125 Z M 43.152344 221.734375 " fill-opacity="1" fill-rule="nonzero"/><path fill="#f8af23" d="M 53.746094 162.121094 L 131.945312 162.121094 L 131.945312 221.734375 L 53.746094 221.734375 Z M 53.746094 162.121094 " fill-opacity="1" fill-rule="nonzero"/><path fill="#f87023" d="M 53.746094 162.121094 L 74.226562 162.121094 L 74.226562 221.734375 L 53.746094 221.734375 Z M 53.746094 162.121094 " fill-opacity="1" fill-rule="nonzero"/><path fill="#f46275" d="M 71.128906 162.121094 L 114.5625 162.121094 L 114.5625 176.097656 L 71.128906 176.097656 Z M 71.128906 162.121094 " fill-opacity="1" fill-rule="nonzero"/><path fill="#f8af23" d="M 131.945312 162.121094 L 210.140625 162.121094 L 210.140625 221.734375 L 131.945312 221.734375 Z M 131.945312 162.121094 " fill-opacity="1" fill-rule="nonzero"/><path fill="#f46275" d="M 149.324219 162.121094 L 192.761719 162.121094 L 192.761719 176.097656 L 149.324219 176.097656 Z M 149.324219 162.121094 " fill-opacity="1" fill-rule="nonzero"/><path fill="#f8af23" d="M 92.84375 102.507812 L 171.042969 102.507812 L 171.042969 162.121094 L 92.84375 162.121094 Z M 92.84375 102.507812 " fill-opacity="1" fill-rule="nonzero"/><path fill="#f87023" d="M 92.84375 102.507812 L 113.324219 102.507812 L 113.324219 162.121094 L 92.84375 162.121094 Z M 92.84375 102.507812 " fill-opacity="1" fill-rule="nonzero"/><path fill="#f46275" d="M 110.226562 102.507812 L 153.664062 102.507812 L 153.664062 116.484375 L 110.226562 116.484375 Z M 110.226562 102.507812 " fill-opacity="1" fill-rule="nonzero"/><g clip-path="url(#f28cc489eb)"><path fill="#3f3679" d="M 41.035156 358.054688 L 14.851562 358.054688 C 13.71875 358.054688 12.804688 358.972656 12.804688 360.105469 C 12.804688 361.234375 13.71875 362.152344 14.851562 362.152344 L 41.035156 362.152344 C 42.167969 362.152344 43.082031 361.234375 43.082031 360.105469 C 43.082031 358.972656 42.167969 358.054688 41.035156 358.054688 Z M 41.035156 358.054688 " fill-opacity="1" fill-rule="nonzero"/></g><g clip-path="url(#9ae4b1430d)"><path fill="#3f3679" d="M 360.070312 358.054688 L 333.886719 358.054688 C 332.753906 358.054688 331.835938 358.972656 331.835938 360.105469 C 331.835938 361.234375 332.753906 362.152344 333.886719 362.152344 L 360.070312 362.152344 C 361.199219 362.152344 362.117188 361.234375 362.117188 360.105469 C 362.117188 358.972656 361.199219 358.054688 360.070312 358.054688 Z M 360.070312 358.054688 " fill-opacity="1" fill-rule="nonzero"/></g><g clip-path="url(#8349ba2d81)"><path fill="#3f3679" d="M 319.054688 358.054688 L 55.867188 358.054688 C 54.734375 358.054688 53.820312 358.972656 53.820312 360.105469 C 53.820312 361.234375 54.734375 362.152344 55.867188 362.152344 L 319.054688 362.152344 C 320.183594 362.152344 321.101562 361.234375 321.101562 360.105469 C 321.101562 358.972656 320.183594 358.054688 319.054688 358.054688 Z M 319.054688 358.054688 " fill-opacity="1" fill-rule="nonzero"/></g><g clip-path="url(#fa1b51d9b9)"><path fill="#3f3679" d="M 14.851562 346.191406 L 360.066406 346.191406 C 361.199219 346.191406 362.117188 345.277344 362.117188 344.144531 C 362.117188 343.011719 361.199219 342.097656 360.066406 342.097656 L 277.964844 342.097656 C 286.503906 337.019531 292.257812 327.722656 292.257812 317.089844 C 292.257812 316.273438 292.203125 315.472656 292.136719 314.671875 L 328.992188 314.671875 C 335.902344 314.671875 341.527344 309.046875 341.527344 302.132812 L 341.527344 300.523438 C 341.527344 293.609375 335.902344 287.984375 328.992188 287.984375 L 325.445312 287.984375 L 325.445312 230.566406 C 325.445312 227.21875 324.441406 223.988281 322.542969 221.230469 L 298.160156 185.789062 C 288.25 171.382812 271.894531 162.78125 254.410156 162.78125 L 235.164062 162.78125 C 226.082031 162.78125 218.691406 170.171875 218.691406 179.257812 L 218.691406 219.683594 L 212.191406 219.683594 L 212.191406 162.117188 C 212.191406 160.988281 211.273438 160.070312 210.144531 160.070312 L 173.09375 160.070312 L 173.09375 102.507812 C 173.09375 101.375 172.175781 100.460938 171.042969 100.460938 L 92.84375 100.460938 C 91.714844 100.460938 90.796875 101.375 90.796875 102.507812 L 90.796875 160.074219 L 53.746094 160.074219 C 52.613281 160.074219 51.699219 160.988281 51.699219 162.121094 L 51.699219 219.6875 L 43.152344 219.6875 C 42.019531 219.6875 41.101562 220.601562 41.101562 221.734375 L 41.101562 288.953125 C 36.578125 290.847656 33.390625 295.320312 33.390625 300.523438 L 33.390625 302.132812 C 33.390625 309.046875 39.015625 314.671875 45.929688 314.671875 L 70.589844 314.671875 C 70.523438 315.472656 70.46875 316.273438 70.46875 317.089844 C 70.46875 327.726562 76.222656 337.019531 84.761719 342.097656 L 14.851562 342.097656 C 13.71875 342.097656 12.804688 343.011719 12.804688 344.144531 C 12.804688 345.277344 13.71875 346.191406 14.851562 346.191406 Z M 114.382812 342.097656 C 122.921875 337.019531 128.675781 327.722656 128.675781 317.089844 C 128.675781 316.273438 128.617188 315.472656 128.550781 314.671875 L 234.175781 314.671875 C 234.109375 315.46875 234.050781 316.273438 234.050781 317.089844 C 234.050781 327.722656 239.804688 337.019531 248.34375 342.097656 Z M 220.738281 292.082031 L 248.34375 292.082031 C 241.605469 296.085938 236.617188 302.722656 234.8125 310.574219 L 127.914062 310.574219 C 126.109375 302.722656 121.121094 296.085938 114.382812 292.082031 Z M 263.152344 342.097656 C 249.367188 342.097656 238.148438 330.878906 238.148438 317.089844 C 238.148438 303.300781 249.367188 292.082031 263.152344 292.082031 C 276.941406 292.082031 288.160156 303.300781 288.160156 317.089844 C 288.160156 330.878906 276.941406 342.097656 263.152344 342.097656 Z M 337.433594 300.523438 L 337.433594 302.132812 C 337.433594 306.789062 333.644531 310.578125 328.992188 310.578125 L 291.496094 310.578125 C 289.691406 302.722656 284.707031 296.089844 277.964844 292.082031 L 328.992188 292.082031 C 333.644531 292.082031 337.433594 295.867188 337.433594 300.523438 Z M 222.785156 179.257812 C 222.785156 172.433594 228.339844 166.878906 235.164062 166.878906 L 254.410156 166.878906 C 270.542969 166.878906 285.636719 174.816406 294.785156 188.109375 L 319.167969 223.554688 C 320.59375 225.625 321.347656 228.050781 321.347656 230.570312 L 321.347656 287.988281 L 222.785156 287.988281 Z M 208.09375 219.6875 L 133.992188 219.6875 L 133.992188 164.167969 L 147.277344 164.167969 L 147.277344 176.097656 C 147.277344 177.226562 148.191406 178.144531 149.324219 178.144531 L 192.761719 178.144531 C 193.890625 178.144531 194.808594 177.226562 194.808594 176.097656 L 194.808594 164.167969 L 208.09375 164.167969 Z M 190.714844 174.050781 L 151.375 174.050781 L 151.375 164.171875 L 190.714844 164.171875 Z M 151.613281 104.554688 L 151.613281 114.433594 L 112.273438 114.433594 L 112.273438 104.554688 Z M 94.894531 104.554688 L 108.179688 104.554688 L 108.179688 116.484375 C 108.179688 117.613281 109.09375 118.53125 110.226562 118.53125 L 153.660156 118.53125 C 154.792969 118.53125 155.707031 117.613281 155.707031 116.484375 L 155.707031 104.554688 L 168.992188 104.554688 L 168.992188 160.074219 L 94.894531 160.074219 Z M 92.84375 164.171875 L 112.515625 164.171875 L 112.515625 174.050781 L 73.175781 174.050781 L 73.175781 164.171875 Z M 55.792969 164.171875 L 69.078125 164.171875 L 69.078125 176.097656 C 69.078125 177.230469 69.996094 178.144531 71.128906 178.144531 L 114.5625 178.144531 C 115.695312 178.144531 116.609375 177.230469 116.609375 176.097656 L 116.609375 164.171875 L 129.894531 164.171875 L 129.894531 219.6875 L 55.792969 219.6875 Z M 45.199219 287.984375 L 45.199219 223.78125 L 218.691406 223.78125 L 218.691406 287.984375 Z M 45.929688 310.574219 C 41.273438 310.574219 37.488281 306.789062 37.488281 302.132812 L 37.488281 300.523438 C 37.488281 295.867188 41.273438 292.078125 45.929688 292.078125 L 84.761719 292.078125 C 78.019531 296.085938 73.035156 302.71875 71.230469 310.574219 Z M 74.566406 317.089844 C 74.566406 303.300781 85.78125 292.082031 99.570312 292.082031 C 113.359375 292.082031 124.578125 303.300781 124.578125 317.089844 C 124.578125 330.878906 113.359375 342.097656 99.570312 342.097656 C 85.78125 342.097656 74.566406 330.878906 74.566406 317.089844 Z M 74.566406 317.089844 " fill-opacity="1" fill-rule="nonzero"/></g><g clip-path="url(#1cb43b2872)"><path fill="#3f3679" d="M 14.851562 100.125 L 81.136719 100.125 C 81.777344 100.125 82.375 99.828125 82.765625 99.320312 C 83.152344 98.8125 83.28125 98.15625 83.113281 97.539062 C 81.398438 91.261719 76.03125 86.703125 69.699219 85.917969 C 68.730469 76.421875 60.6875 68.992188 50.941406 68.992188 C 42.28125 68.992188 34.921875 74.75 32.746094 82.949219 C 32.242188 82.90625 31.738281 82.882812 31.246094 82.882812 C 22.488281 82.882812 14.75 89.085938 12.851562 97.632812 C 12.714844 98.238281 12.863281 98.875 13.253906 99.359375 C 13.640625 99.84375 14.230469 100.125 14.851562 100.125 Z M 31.246094 86.976562 C 32.140625 86.976562 33.03125 87.0625 33.980469 87.242188 C 34.523438 87.347656 35.089844 87.21875 35.539062 86.902344 C 35.992188 86.582031 36.296875 86.09375 36.382812 85.546875 C 37.511719 78.324219 43.636719 73.085938 50.941406 73.085938 C 59.082031 73.085938 65.703125 79.707031 65.703125 87.84375 C 65.703125 88.976562 66.617188 89.890625 67.75 89.890625 C 72.121094 89.890625 76.070312 92.316406 78.117188 96.027344 L 17.648438 96.027344 C 19.914062 90.660156 25.277344 86.976562 31.246094 86.976562 Z M 31.246094 86.976562 " fill-opacity="1" fill-rule="nonzero"/></g><g clip-path="url(#0843479c13)"><path fill="#3f3679" d="M 293.78125 100.125 L 360.070312 100.125 C 360.707031 100.125 361.308594 99.828125 361.695312 99.320312 C 362.085938 98.8125 362.210938 98.15625 362.042969 97.539062 C 360.332031 91.261719 354.964844 86.703125 348.628906 85.917969 C 347.664062 76.421875 339.621094 68.992188 329.875 68.992188 C 321.214844 68.992188 313.855469 74.75 311.679688 82.949219 C 311.171875 82.90625 310.671875 82.882812 310.179688 82.882812 C 301.421875 82.882812 293.683594 89.085938 291.785156 97.632812 C 291.648438 98.238281 291.796875 98.875 292.1875 99.359375 C 292.574219 99.84375 293.160156 100.125 293.78125 100.125 Z M 310.179688 86.976562 C 311.058594 86.976562 311.976562 87.066406 312.914062 87.242188 C 313.457031 87.347656 314.019531 87.21875 314.472656 86.902344 C 314.925781 86.582031 315.226562 86.09375 315.3125 85.546875 C 316.445312 78.324219 322.570312 73.085938 329.875 73.085938 C 338.011719 73.085938 344.632812 79.707031 344.632812 87.84375 C 344.632812 88.976562 345.550781 89.890625 346.683594 89.890625 C 351.054688 89.890625 355 92.316406 357.046875 96.027344 L 296.582031 96.027344 C 298.84375 90.660156 304.207031 86.976562 310.179688 86.976562 Z M 310.179688 86.976562 " fill-opacity="1" fill-rule="nonzero"/></g><g clip-path="url(#606e897e5d)"><path fill="#3f3679" d="M 154.316406 43.972656 L 220.605469 43.972656 C 221.242188 43.972656 221.84375 43.675781 222.230469 43.167969 C 222.617188 42.660156 222.746094 42.003906 222.578125 41.386719 C 220.867188 35.109375 215.496094 30.550781 209.164062 29.765625 C 208.195312 20.269531 200.152344 12.839844 190.40625 12.839844 C 181.75 12.839844 174.390625 18.597656 172.214844 26.796875 C 171.707031 26.753906 171.207031 26.730469 170.710938 26.730469 C 161.953125 26.730469 154.21875 32.933594 152.316406 41.480469 C 152.183594 42.085938 152.332031 42.722656 152.71875 43.207031 C 153.105469 43.691406 153.695312 43.972656 154.316406 43.972656 Z M 170.710938 30.824219 C 171.605469 30.824219 172.5 30.910156 173.449219 31.089844 C 173.992188 31.191406 174.554688 31.070312 175.007812 30.75 C 175.457031 30.429688 175.761719 29.941406 175.847656 29.394531 C 176.976562 22.171875 183.101562 16.933594 190.40625 16.933594 C 198.546875 16.933594 205.167969 23.554688 205.167969 31.691406 C 205.167969 32.824219 206.082031 33.738281 207.214844 33.738281 C 211.585938 33.738281 215.535156 36.164062 217.582031 39.875 L 157.113281 39.875 C 159.378906 34.507812 164.742188 30.824219 170.710938 30.824219 Z M 170.710938 30.824219 " fill-opacity="1" fill-rule="nonzero"/></g><path fill="#3f3679" d="M 243.789062 223.78125 L 281.757812 223.78125 C 285.601562 223.78125 289.039062 221.640625 290.730469 218.191406 C 292.425781 214.738281 292.015625 210.710938 289.664062 207.671875 L 274.394531 187.917969 C 272.515625 185.488281 269.558594 184.039062 266.484375 184.039062 L 243.789062 184.039062 C 238.277344 184.039062 233.792969 188.523438 233.792969 194.035156 L 233.792969 213.789062 C 233.792969 219.296875 238.277344 223.78125 243.789062 223.78125 Z M 237.890625 194.035156 C 237.890625 190.78125 240.535156 188.132812 243.789062 188.132812 L 266.488281 188.132812 C 268.300781 188.132812 270.046875 188.988281 271.15625 190.425781 L 286.425781 210.175781 C 287.835938 211.996094 288.070312 214.316406 287.058594 216.386719 C 286.042969 218.453125 284.0625 219.683594 281.757812 219.683594 L 243.789062 219.683594 C 240.535156 219.683594 237.890625 217.039062 237.890625 213.785156 Z M 237.890625 194.035156 " fill-opacity="1" fill-rule="nonzero"/><path fill="#3f3679" d="M 99.570312 304.660156 C 92.71875 304.660156 87.140625 310.234375 87.140625 317.089844 C 87.140625 323.945312 92.71875 329.519531 99.570312 329.519531 C 106.425781 329.519531 112.003906 323.945312 112.003906 317.089844 C 112.003906 310.234375 106.425781 304.660156 99.570312 304.660156 Z M 99.570312 325.425781 C 94.976562 325.425781 91.238281 321.683594 91.238281 317.089844 C 91.238281 312.492188 94.976562 308.753906 99.570312 308.753906 C 104.167969 308.753906 107.90625 312.492188 107.90625 317.089844 C 107.90625 321.683594 104.167969 325.425781 99.570312 325.425781 Z M 99.570312 325.425781 " fill-opacity="1" fill-rule="nonzero"/><path fill="#3f3679" d="M 263.152344 304.660156 C 256.300781 304.660156 250.726562 310.234375 250.726562 317.089844 C 250.726562 323.945312 256.300781 329.519531 263.152344 329.519531 C 270.007812 329.519531 275.585938 323.945312 275.585938 317.089844 C 275.585938 310.234375 270.007812 304.660156 263.152344 304.660156 Z M 263.152344 325.425781 C 258.558594 325.425781 254.820312 321.683594 254.820312 317.089844 C 254.820312 312.492188 258.558594 308.753906 263.152344 308.753906 C 267.75 308.753906 271.488281 312.492188 271.488281 317.089844 C 271.488281 321.683594 267.75 325.425781 263.152344 325.425781 Z M 263.152344 325.425781 " fill-opacity="1" fill-rule="nonzero"/><path fill="#3f3679" d="M 255.523438 232.132812 L 239.609375 232.132812 C 236.542969 232.132812 234.050781 234.625 234.050781 237.691406 C 234.050781 240.753906 236.542969 243.246094 239.609375 243.246094 L 255.523438 243.246094 C 258.589844 243.246094 261.082031 240.753906 261.082031 237.691406 C 261.082031 234.625 258.589844 232.132812 255.523438 232.132812 Z M 255.523438 239.152344 L 239.609375 239.152344 C 238.804688 239.152344 238.148438 238.496094 238.148438 237.691406 C 238.148438 236.882812 238.800781 236.226562 239.609375 236.226562 L 255.523438 236.226562 C 256.332031 236.226562 256.988281 236.882812 256.988281 237.691406 C 256.988281 238.484375 256.320312 239.152344 255.523438 239.152344 Z M 255.523438 239.152344 " fill-opacity="1" fill-rule="nonzero"/></svg>